<?xml version="1.0" encoding="utf-8"?>
<!-- Generator: Adobe Illustrator 27.2.0, SVG Export Plug-In . SVG Version: 6.00 Build 0)  -->
<svg version="1.1" xmlns="http://www.w3.org/2000/svg" xmlns:xlink="http://www.w3.org/1999/xlink" x="0px" y="0px"
	 viewBox="0 0 264.57 166.05" style="enable-background:new 0 0 264.57 166.05;" xml:space="preserve">
<style type="text/css">
	.st0{fill:#1D1D1B;stroke:#1D1D1B;stroke-width:1.9843;stroke-miterlimit:10;}
	.st1{fill:#EDEDED;}
	.st2{fill:#004289;}
	.st3{fill:#1D1D1B;}
</style>
<g id="olomouc">
</g>
<g id="brno">
</g>
<g id="budejovice">
</g>
<g id="vary">
</g>
<g id="praha">
	<path class="st0" d="M257.73,119.15c-0.41,0-0.67,0.2-1.08,0.54c-0.12,0.1-0.25,0.2-0.4,0.31c-0.32,0.24-0.6,0.3-0.84,0.17
		c-0.34-0.17-0.49-0.62-0.49-1.5c0-0.22-0.05-0.28-0.07-0.3c-0.07-0.06-0.31-0.03-0.46-0.01c-0.12,0.02-0.23,0.03-0.32,0.03
		c-0.47,0-1.44,0-1.78-0.67c-0.14-0.28-0.77-0.24-1.3-0.09c-0.3,0.09-0.54,0.06-0.72-0.08c-0.32-0.24-0.34-0.71-0.34-1.22
		c0-0.52-0.07-0.63-0.29-0.93c-0.05-0.07-0.1-0.14-0.16-0.23c-0.38-0.57-0.4-1.26-0.3-2.2c0.03-0.33-0.31-0.47-1.08-0.68
		c-0.2-0.05-0.39-0.1-0.55-0.16c-0.75-0.28-0.5-1.01-0.35-1.44c0.06-0.19,0.13-0.38,0.15-0.55c0.04-0.3,0.17-0.77,0.32-1.31
		c0.19-0.67,0.42-1.5,0.42-1.9c0-0.41-1.3-0.77-1.94-0.77c-0.05,0-0.17,0.08-0.3,0.29c-0.23,0.4-0.32,1-0.18,1.24
		c0.35,0.62,0.65,1.28,0.45,1.99c-0.23,0.81-1.29,0.66-1.92,0.57l-0.09-0.01c-0.32-0.04-0.53,0.07-0.86,0.25
		c-0.14,0.08-0.3,0.16-0.47,0.23c-0.73,0.32-1.21,0.17-1.71-0.52c-0.09-0.13-0.14-0.15-0.14-0.15c0.01,0.03-0.13,0.23-0.25,0.4
		l-0.19,0.26c-0.54,0.72-1.68,0.92-2.59,1.09l-0.19,0.03c-0.48,0.09-0.85,0.13-1.1-0.08c-0.25-0.21-0.27-0.56-0.27-1.06
		c0-0.49-1.02-0.66-1.69-0.77c-0.18-0.03-0.35-0.06-0.48-0.09c-0.67-0.15-1.35,0.08-2.08,0.33c-1.03,0.34-1.68-0.46-1.93-0.77
		c-0.34-0.42-0.43-1.23-0.32-2.64c0.03-0.39-0.03-0.41-0.6-0.46c-0.23-0.02-0.49-0.05-0.76-0.13c-0.11-0.03-0.44-0.13-0.5-0.44
		c-0.06-0.33,0.23-0.56,0.52-0.79c0.09-0.07,0.25-0.2,0.28-0.25c0.05-0.23-0.1-1.31-0.31-1.66c-0.32-0.53-0.06-1.05,0.12-1.39
		l0.04-0.08c0.16-0.32,0.3-0.6,0.3-1.19c0-0.37,0.14-0.78,0.28-1.21c0.15-0.44,0.3-0.9,0.3-1.29c0-0.33-0.18-0.76-0.33-1.14
		c-0.22-0.54-0.42-1-0.2-1.35c0.29-0.49,0.35-0.52,1.28-1.03c0.02-0.01,0.04-0.03,0.06-0.04c-0.22-0.17-0.92-0.38-1.24-0.38
		c-0.24,0-0.47-0.11-0.66-0.33c-0.31-0.35-0.47-0.95-0.4-1.44l0.02-0.13c0.08-0.53,0.22-1.51,0.15-1.85
		c-0.1-0.5,0.08-1.97,0.27-2.43c0.26-0.64,1.2-0.61,2.15-0.53c0.43,0.04,0.95-0.35,1.41-0.68c0.38-0.28,0.7-0.52,1.02-0.56
		c0.22-0.03,0.25-0.09,0.36-0.33c0.06-0.13,0.14-0.3,0.28-0.47c0.46-0.58,2.58-0.78,2.99-0.78c0.6,0,1.58-0.23,1.7-0.41l-0.01-0.23
		c0.01-0.58,0.04-1.93-0.15-2.44c-0.24-0.64-0.4-1.88-0.13-2.28c0.32-0.48,1.65-0.36,2.22-0.11l0.37,0.16
		c0.86,0.38,2.89,1.27,3.56,1.4c0.5,0.1,0.5,0.08,0.6-0.19l0.05-0.12c0.03-0.28-0.81-1.4-1.13-1.82l-0.16-0.21
		c-0.7-0.93-0.06-1.57,0.36-1.99c0.12-0.12,0.1-0.2,0.09-0.24c-0.05-0.19-0.33-0.41-0.62-0.49c-0.89-0.26-0.7-0.93-0.55-1.47
		c0.02-0.06,0.02-0.12,0.01-0.13c-0.09-0.13-0.68-0.19-0.99-0.22c-0.23-0.02-0.51-0.08-0.65-0.31c-0.15-0.25-0.03-0.51,0.08-0.78
		c0.08-0.18,0.16-0.38,0.21-0.61c0.08-0.38,0.04-0.39-0.35-0.58c-0.15-0.07-0.32-0.15-0.51-0.27c-0.26-0.16-0.41-0.36-0.43-0.59
		c-0.04-0.39,0.28-0.68,0.59-0.96c0.07-0.06,0.14-0.13,0.2-0.19c0.1-0.1,0.14-0.22,0.11-0.36c-0.03-0.19-0.18-0.38-0.37-0.48
		c-0.58-0.29-0.55-0.92-0.52-1.47c0.01-0.13,0.01-0.26,0.01-0.39c0-0.15,0-0.44-0.85-0.44c-0.65,0-1.4-0.61-1.4-1.15
		c0-0.36,0.17-1.24,0.7-1.66c0.06-0.16-0.33-0.75-0.46-0.95c-0.09-0.14-0.16-0.25-0.2-0.33c-0.04-0.07-0.07-0.15-0.11-0.24
		c-0.14-0.32-0.29-0.67-0.62-0.89c-0.34-0.22-0.46-0.77-0.49-1.28c-0.28,0.44-0.58,0.91-0.94,1.31c-0.61,0.7-1.44,1.31-1.98,1.72
		c-0.24,0.18-0.45,0.33-0.53,0.42c-0.21,0.21-0.58,0.29-0.97,0.39c-0.23,0.05-0.67,0.16-0.74,0.25c-0.12,0.18-0.34,0.3-0.66,0.36
		c-0.14,0.03-0.3,0.04-0.47,0.04c-0.48,0-1.01-0.1-1.31-0.32c-0.43-0.31-0.99-0.68-1.48-0.99c-0.62-0.39-0.74-1.15-0.57-1.73
		c0.02-0.12-0.24-0.54-0.37-0.74c-0.21-0.33-0.39-0.61-0.39-0.86c0-0.1-0.03-0.26-0.06-0.44c-0.08-0.5-0.19-1.12,0.03-1.52
		c-0.04-0.02-0.1-0.05-0.14-0.07c-0.14-0.06-0.3-0.13-0.43-0.26c-0.3-0.3-0.44-0.91-0.46-1.03L225.3,56l0.15-0.12
		c0.08-0.07,8.25-6.56,8.8-7.05c0.41-0.36,0.4-1.04,0.4-1.41l0-0.11c0-0.16-0.1-0.64-0.2-1.07c-0.1-0.47-0.21-0.96-0.24-1.28
		c-0.07-0.69,0.29-1.23,0.56-1.62l0.06-0.08c0.11-0.16-0.05-0.39-0.48-0.87c-0.41-0.47-1.25-0.84-1.7-1.05
		c-0.74-0.33-0.95-1.45-0.8-2.1c0.09-0.39,0.07-0.53-0.78-1.33c-0.28-0.26-0.38-0.27-0.39-0.27c-0.01,0.01-0.07,0.09-0.11,0.15
		c-0.11,0.14-0.24,0.31-0.46,0.42c-0.54,0.27-1.28-0.05-1.88-0.3c-0.11-0.05-0.21-0.09-0.3-0.12c-0.23-0.09-0.31-0.25-0.33-0.34
		c-0.08-0.32,0.18-0.62,0.46-0.95c0.13-0.15,0.28-0.33,0.32-0.43c-0.03-0.13-0.41-0.32-1.13-0.58l-0.4-0.15
		c-0.8-0.3-2.46-0.91-2.9-0.96c-0.42-0.05-1.58-0.23-2.17-0.32c-0.04,0.29-0.13,0.6-0.27,0.85c-0.28,0.49-0.84,0.93-1.11,1.02
		l-0.09,0.03c-0.25,0.07-0.45,0.15-0.51,0.49c-0.02,0.13-0.04,0.26-0.06,0.4c-0.06,0.47-0.11,0.92-0.45,1.1
		c-0.12,0.07-0.33,0.12-0.62-0.03c-0.21-0.11-0.44-0.27-0.68-0.45c-0.25-0.18-0.77-0.56-0.92-0.52c-0.3,0.4-0.3,0.97-0.15,1.32
		c0.04,0.1,0.17,0.26,0.3,0.42c0.3,0.37,0.6,0.76,0.55,1.15c-0.02,0.17-0.11,0.32-0.26,0.43c-0.21,0.16-0.6,0.65-0.98,1.13
		c-0.45,0.56-0.91,1.15-1.26,1.43c-0.24,0.19-0.54,0.65-0.81,1.05c-0.5,0.75-0.82,1.21-1.22,1.26l-0.24,0.03
		c-0.33,0.03-0.75,0.08-0.83,0.24c-0.19,0.39-0.74,1.24-0.77,1.28c-0.15,0.27,0.05,0.73,0.47,1.01c0.63,0.42,1,0.72,0.69,1.73
		c-0.27,0.89-0.63,1.24-0.89,1.5l-0.06,0.06c-0.07,0.07-0.19,0.18-0.21,0.24c0.01,0,0.02,0.02,0.06,0.05
		c0.46,0.39,0.5,0.94,0.11,1.43c-0.37,0.47-1.9,0.68-2.31,0.68c-0.29,0-0.46,0.19-0.66,0.46c-0.11,0.15-0.82,1.06-1.79,1.23
		c-0.06,0.01-0.11,0.01-0.17,0.01c-0.32,0-0.66-0.15-0.99-0.43c-0.47-0.4-0.83-1-0.83-1.4c0-0.27-0.5-0.5-0.75-0.5
		c-0.62,0-0.97-0.9-1-1.43c-0.24-0.11-1.09-0.09-1.38-0.08c-0.12,0-0.23,0.01-0.31,0.01c-0.66,0-0.83-0.38-1.04-0.86l-0.06-0.14
		c-0.1-0.12-0.63-0.27-2.57-0.2c-0.17,0.01-0.3,0.01-0.39,0.01c-0.3,0-0.58-0.14-0.8-0.4c-0.26-0.3-0.41-0.71-0.39-1.06
		c-0.3-0.25-1.82-0.66-2.33-0.79c-0.21-0.06-0.39-0.1-0.5-0.14c-0.74-0.22-1.12-0.55-1.27-1.09c-0.03-0.12-0.21-0.34-0.37-0.54
		c-0.3-0.37-0.64-0.8-0.64-1.24c0-0.41,0.23-0.64,0.42-0.83c0.16-0.16,0.29-0.29,0.34-0.54c0.01-0.04,0.01-0.05-0.04-0.08
		c-0.24-0.16-0.87-0.1-1-0.01l-0.08,0.08c-0.24,0.25-0.54,0.55-1.02,0.62c-0.14,0.02-0.37,0-0.6-0.23
		c-0.36-0.35-0.62-1.08-0.56-1.55c0.03-0.22,0.09-0.58,0.15-0.93c0.05-0.27,0.11-0.62,0.14-0.84c-0.46-0.05-1.63,0.09-1.82,0.28
		c-0.21,0.21-0.55,0.31-0.97,0.3c-0.49-0.01-1.17-0.2-1.61-0.69c-0.11-0.13-0.18-0.17-0.2-0.19c0.01,0.02-0.03,0.06-0.06,0.1
		c-0.09,0.1-0.22,0.23-0.4,0.34c-0.36,0.23-0.64,0.69-0.92,1.19l-0.16,0.27c-0.35,0.58-0.79,0.51-0.92,0.48
		c-0.32-0.09-0.54-0.4-0.54-0.77c0-0.15-0.13-0.45-0.25-0.72c-0.16-0.36-0.34-0.76-0.37-1.13c-0.05-0.48-1.39-2.61-1.8-3.08
		c-0.31,0.03-1.27,0.56-1.74,0.82c-0.43,0.24-0.7,0.38-0.87,0.45c-0.11,0.26-0.01,1.2,0.29,2.79c0.14,0.75,0.34,0.96,0.58,1.24
		c0.05,0.06,0.11,0.12,0.16,0.18c0.44,0.53,0.5,1.24,0.16,1.85c-0.12,0.22-0.24,0.38-0.33,0.51c-0.15,0.2-0.19,0.27-0.19,0.4
		c0,0.42-0.32,1.84-0.53,2.31c-0.07,0.16-0.2,0.26-0.38,0.28c-0.64,0.1-1.92-1.08-2.34-1.58c-0.03-0.04-0.06-0.07-0.08-0.08
		c-0.08,0.11-0.17,0.37-0.23,0.54c-0.09,0.24-0.18,0.49-0.3,0.69c-0.39,0.66-1.48,0.75-2.14,0.81c-0.11,0.01-0.21,0.02-0.27,0.03
		c-0.21,0.03-0.24,0.08-0.46,0.48l-0.13,0.24c-0.08,0.15-0.19,0.25-0.33,0.32l-0.83,0.03c-0.34-0.06-0.72-0.18-1.18-0.42l-0.12-0.06
		c-0.72-0.36-1.32-0.69-1.47-1.12c-0.06-0.04-0.49-0.16-1.33-0.16c-0.14,0.03-0.82,0.45-1.03,0.66c-0.21,0.21-0.59,0.22-0.87,0.19
		c-0.49-0.05-1.18-0.27-1.49-0.74c-0.15-0.22-0.6-0.46-1.07-0.63l-0.62-0.2c-0.21-0.06-0.39-0.09-0.49-0.09
		c-0.52,0-1.45-0.35-1.77-0.91c-0.13-0.22-0.36-0.7-0.6-1.17c-0.23-0.46-0.46-0.93-0.59-1.14c-0.08-0.06-0.48-0.17-2.13-0.05
		c-0.14,0.01-0.25,0.02-0.29,0.02c-0.45,0-1.37-0.93-1.37-1.5c0-0.17-0.11-0.6-0.2-0.98c-0.12-0.5-0.24-0.97-0.24-1.27
		c0-0.48-0.06-0.7-0.22-0.79c-0.11-0.06-0.18-0.16-0.2-0.28c-0.05-0.26,0.12-0.5,0.34-0.81c0.12-0.18,0.36-0.51,0.34-0.63
		c-0.02-0.19-0.12-0.61-0.22-1.07c-0.2-0.92-0.35-1.6-0.35-1.91c0-0.29,0-0.56,0.22-0.74c0.23-0.19,0.57-0.17,1.09-0.06
		c0.37,0.07,0.38,0.04,0.42-0.15c0.03-0.12,0.06-0.27,0.17-0.39c0.26-0.26,0.92-0.25,2.24-0.15c0.23,0.01,0.28-0.03,0.28-0.03
		c0.03-0.04,0.02-0.23,0.01-0.33c-0.01-0.14-0.01-0.29,0-0.43c0.03-0.21,0.14-0.33,0.22-0.39c0.26-0.18,0.61-0.1,1.01,0
		c0.24,0.06,0.52,0.12,0.76,0.12c0.34,0,0.55-0.64,0.71-1.1c0.07-0.21,0.13-0.4,0.2-0.54c0.22-0.45,1.94-2.93,2.42-3.24
		c0.18-0.13,0.84-1.12,1.19-1.66c0.38-0.57,0.58-0.88,0.69-0.99c0.01-0.13-0.24-0.91-0.35-1.24c-0.09-0.27-0.16-0.49-0.18-0.61
		c-0.06-0.37,0.14-0.75,0.33-1.11c0.07-0.13,0.13-0.25,0.19-0.37c-0.04-0.06-0.45-0.26-1.18-0.32c-1.1-0.09-1.1-1.29-1.1-1.69
		c0-0.58,0.18-1.2,0.31-1.65c0.09-0.31-0.16-0.66-0.45-0.74c-0.15,0.02-0.63,0.57-1.08,1.35c-0.09,0.16-0.24,0.26-0.41,0.29
		c-0.39,0.06-0.82-0.33-1.21-0.73l-0.06-0.06c-0.12-0.04-0.51,0.26-0.72,0.41c-0.24,0.17-0.42,0.13-0.52,0.06
		c-0.27-0.16-0.22-0.5-0.15-0.96c0.03-0.18,0.06-0.38,0.06-0.54c0-0.22-0.33-0.5-0.6-0.66c-0.13,0.05-0.26,0.1-0.41,0.11
		c-0.48,0.03-0.97-0.2-1.48-0.71l-0.48-0.48c-1-1.02-2.25-2.29-2.85-2.05c-0.16,0.06-0.34,0.15-0.53,0.23
		c-0.82,0.37-1.75,0.8-2.49,0.48c-0.23-0.1-0.54-0.32-0.7-0.81c-0.42-1.25-0.73-1.49-1.15-1.49c-0.34,0-0.36,0.02-0.56,0.39
		c-0.07,0.12-0.14,0.26-0.24,0.4c-0.47,0.71-1.31,0.68-2.59,0.65c-0.32-0.01-0.68-0.02-1.08-0.02c-0.59,0-1.1,0.12-1.59,0.23
		c-0.97,0.23-1.98,0.46-3.34-0.29c-1.83-1.02-3.22-1.16-4.44-1.16c-2.17,0-4.56-0.07-5.44-0.96c-0.17-0.17-0.33-0.35-0.5-0.53
		c-0.61-0.67-1.24-1.36-2-1.36c-0.34,0-0.59,0.05-0.81,0.1c-0.65,0.14-1.13,0.17-1.82-0.7c-0.54-0.68-1.04-0.88-1.16-0.86
		c-0.15,0.66-0.81,1.01-1.59,0.92c-0.84-0.1-1.43-0.68-1.43-1.39c0-0.74-0.13-0.84-0.14-0.84c0,0-0.18-0.06-0.75,0.26
		c-0.45,0.26-0.82,0.5-1.15,0.71c-0.71,0.46-1.27,0.82-2.06,0.98c-0.23,0.05-0.45,0.06-0.65,0.08c-0.66,0.05-0.78,0.06-0.78,1.06
		c0,1.79,0,2.32,0.35,3.03c0.37,0.74,0.38,1.82,0.04,3.2c-0.19,0.78-0.63,1.35-1.16,1.54c-0.29,0.1-0.74,0.14-1.26-0.24
		c-0.87-0.65-1.19-0.78-1.46-0.59c-0.62,0.41-1.25-0.02-1.72-0.33c-0.28-0.19-0.59-0.4-0.8-0.4c-0.23,0.23-0.3,0.97-0.12,1.85
		c0.28,1.39-0.45,1.96-1.28,2.38c-0.25,0.13-0.4,0.36-0.59,0.65c-0.26,0.41-0.58,0.92-1.28,1.2c-0.36,0.14-0.67,0.24-0.96,0.33
		c-0.52,0.16-0.9,0.27-1.37,0.63c-0.51,0.38-1.86,1.4-2.89,0.36c-0.29-0.28-1.59-0.18-2.3-0.12c-0.38,0.03-0.73,0.06-1.02,0.06
		c-0.71,0-1.54,0.37-2.55,1.12c-0.22,0.17-0.48,0.33-0.75,0.5c-0.51,0.32-1.29,0.81-1.29,1.14c0,0.95-0.25,1.64-0.66,2.46
		l-0.09,0.18c-0.09,0.19-0.18,0.35-0.27,0.49l-0.45,0.45c-0.26,0.16-0.62,0.28-1.19,0.37c-0.18,0.03-0.36,0.07-0.53,0.1
		c-0.89,0.18-1.99,0.41-2.47-1.05c-0.12-0.35-0.24-0.74-0.35-1.13c-0.26-0.86-0.56-1.84-0.81-2.21c-0.37-0.55-1.83-1.77-2.76-1.62
		c-1.25,0.21-2.33,0.73-2.44,0.97c0.01,0.67-0.7,1.34-1.39,1.99c-0.13,0.13-0.26,0.25-0.38,0.36c-0.24,0.24-0.38,0.45-0.53,0.69
		c-0.2,0.31-0.42,0.66-0.9,1.14c-0.09,0.09-0.09,0.2,0.13,0.56c0.08,0.13,0.29,0.48-0.01,0.77c-0.31,0.31-0.47,0.21-1.55-0.44
		l-0.74-0.45c-0.81-0.5-2.02-1.25-2.32-1.13c0,0-0.04,0.05-0.06,0.21c-0.07,0.47,0,1.18,0.05,1.8c0.1,1.18,0.17,1.95-0.34,2.27
		c-0.14,0.09-0.45,0.2-0.87-0.05c-1.02-0.61-3.55-1.74-4.76-1.56c-0.46,0.07-0.97,0.23-1.46,0.39c-1.05,0.34-2.04,0.67-2.78,0.12
		c-0.2-0.15-0.38-0.3-0.54-0.44c-0.5-0.42-0.8-0.68-1.4-0.68l-0.37,0.01c-0.6,0.02-1.16,0.03-1.57-0.36
		c-0.27-0.26-0.4-0.64-0.4-1.16c0-0.92-0.24-1.41-0.36-1.47c-0.03-0.02-0.17,0-0.45,0.23c-0.42,0.35-0.64,0.78-0.87,1.24
		c-0.37,0.73-0.8,1.57-2.03,1.72l-0.33,0.04c-1.45,0.18-1.58,0.23-1.69,0.78c-0.15,0.74-0.64,1.36-1.29,1.63
		c-0.47,0.19-0.94,0.16-1.31-0.09c0,0,0,0-0.01,0c-0.08,0.13-0.18,0.3-0.33,0.5c-0.61,0.81-1.24,1.66-1.88,2.29
		c-0.48,0.48-0.92,0.51-1.31,0.54c-0.26,0.02-0.53,0.04-0.9,0.19c-0.24,0.1-0.55,0.27-0.87,0.46c-0.98,0.56-2.33,1.34-3.71,0.99
		c-1.18-0.29-1.53-0.62-1.9-0.96c-0.18-0.17-0.36-0.33-0.67-0.52c-0.89-0.53-2.17-0.52-2.64-0.36c-0.03,0.02-0.08,0.13-0.12,0.2
		c-0.25,0.51-0.62,1.05-1.88,1.05c-1.7,0-2.17,0.48-2.4,0.95c-0.45,0.9-1.13,2.25-2.39,2.51c-0.49,0.1-1.03,0.04-1.51-0.01
		c-0.28-0.03-0.95-0.1-1.02,0c-0.08,0.12-0.17,0.24-0.27,0.36c-0.39,0.5-0.68,0.86-0.31,1.58c0.68,1.35,0.84,2.33,0.49,2.89
		c-0.11,0.18-0.38,0.48-0.94,0.48c-0.37,0-0.47,0.03-0.49,0.05c-0.02,0.07-0.02,0.48-0.02,0.88c0,0.37,0.15,0.91,0.28,1.39
		c0.25,0.9,0.44,1.61,0.01,2.01c-0.16,0.15-0.45,0.29-0.95,0.13c-1.67-0.56-2.83-0.62-3.02-0.45c0.02,0.28,0.11,0.63,0.2,0.97
		c0.15,0.56,0.29,1.08,0.04,1.51c-0.09,0.15-0.26,0.35-0.6,0.43c-0.2,0.05-0.37,0.03-0.49-0.01c-0.07,0.24-0.13,0.46-0.19,0.68
		c-0.37,1.31-0.62,2.18-1.29,2.39c-0.34,0.11-0.72,0.01-1.1-0.3c-0.26-0.21-0.5-0.43-0.75-0.64c-0.7-0.62-1.3-1.16-2.08-1.29
		c-0.68-0.11-0.87,0.06-1.22,0.37c-0.14,0.13-0.29,0.25-0.46,0.37c-0.14,0.09-0.24,0.2-0.35,0.33c-0.31,0.34-0.69,0.77-1.76,0.77
		c-0.31,0-0.57-0.08-0.78-0.24c-0.57,1.72-1.12,3.93-1.17,4.1c0.41,0.19,0.84,0.5,1.23,1.02c1.08,1.44,1.83,2.55,1.65,3.65
		C9.01,63.23,9,63.39,8.99,63.51c-0.05,0.8-0.32,1.04-1.31,1.18c-0.65,0.09-1.49,0.36-1.78,1.09c-0.11,0.27-0.15,0.52-0.19,0.77
		c-0.07,0.43-0.15,0.88-0.54,1.27C5.08,67.9,4.98,68,4.87,68.11c-0.46,0.43-1.08,1.03-1.29,1.56c-0.33,0.82-0.24,1.04-0.21,1.09
		c0.06,0.09,0.72,0.08,1.2,0.06c0.79-0.05,1.47-0.09,1.87,0.3c0.13,0.12,0.29,0.35,0.29,0.7c0.02,0.27,0.8,0.89,1.24,1.04
		c0-0.02,0-0.03,0.01-0.04c0.1-0.56,0.24-0.99,1.2-1.31c0.2-0.07,0.26-0.18,0.39-0.41c0.19-0.36,0.51-0.96,1.6-0.69
		c0.37,0.09,0.78,0.05,1.22,0c0.83-0.09,1.87-0.21,2.63,0.81c0.29,0.38,0.49,0.74,0.66,1.03c0.41,0.72,0.52,0.87,1.06,0.8
		c0.41-0.05,0.86-0.23,1.33-0.41c0.88-0.34,1.79-0.7,2.66-0.33c5.09,2.18,4.99,2.66,4.9,3.08c-0.07,0.35-0.38,0.52-0.9,0.52
		c-0.33,0-0.65,0-0.95-0.01c-0.82-0.01-2.06-0.03-2.18,0.2c-0.11,0.22-0.03,0.48,0.13,0.93c0.09,0.24,0.17,0.5,0.23,0.77
		c0.11,0.57,1.4,1.05,2.17,1.34c1.16,0.43,3.51,1.76,3.73,2.86c0.13,0.64,2.21,3.58,2.93,3.82c0.15,0.05,0.38,0.13,0.67,0.24
		c1.18,0.44,4.78,1.77,5.64,1.34c0.36-0.18,0.72-0.43,1.1-0.69c0.84-0.58,1.8-1.23,3.01-1.23c1.65,0,3.9,0.82,4.49,1.99
		c0.59,1.18,0.88,2.44,0.98,2.92c0.17,0.85,0.45,1.84,1.14,1.93c0.17,0.02,0.32,0.04,0.47,0.06c0.81,0.08,1.82,0.19,1.82,1.68
		c0,0.4-0.07,0.83-0.13,1.24c-0.05,0.33-0.14,0.87-0.1,1.09c0.02,0,0.05-0.01,0.08-0.02c0.22-0.06,0.46-0.12,0.7-0.19
		c1.27-0.35,2.59-0.72,3.41-0.22c0.23,0.14,0.46,0.31,0.71,0.49c0.54,0.4,1.16,0.84,1.68,0.84c0.85,0,1.81,0,2.18,0.6
		c0.13,0.21,0.23,0.56-0.02,1.06l-0.14,0.28c-1.53,3-1.51,3.7-1.43,3.87c0.19-0.02,0.5,0.01,0.82,0.05
		c1.82,0.19,3.15,0.35,3.71,0.78c0.16,0.12,0.41,0.19,0.68,0.27c0.56,0.16,1.26,0.37,1.65,1.15c0.49,0.97,1.51,2.51,2.26,2.89
		c0.39,0.19,1.01,0.41,1.63,0.59l0.6,0.17c0.61,0.16,1.13,0.28,1.28,0.28c0.3,0,0.55,0.14,0.68,0.38c0.22,0.42,0.05,1.02-0.57,1.95
		c-0.17,0.25-0.32,0.45-0.46,0.62c-0.36,0.46-0.48,0.61-0.4,1.21c0.08,0.58,0.08,0.92,0.08,1.2c0,0.26,0,0.46,0.07,0.8
		c0.18,0.88,0.17,1.88-0.02,2.43c-0.14,0.42-0.24,2.29-0.03,2.73c0.25,0.51,0.98,2.77,0.22,3.53c-0.34,0.34-1.53,3.21-1.9,4.31
		c-0.22,0.65-0.86,2.21-2.18,2.65c-0.84,0.28-3.09,2.21-3.24,2.69c0.01,0.13,0.16,0.49,0.3,0.82c0.23,0.54,0.49,1.16,0.49,1.77
		c0,0.42-0.04,2.58-0.77,3.31c-0.14,0.14-0.4,0.34-0.71,0.58c-0.44,0.33-1.6,1.22-1.63,1.56c0,0.24,0.16,0.68,0.31,1.12
		c0.27,0.76,0.57,1.62,0.46,2.37l-0.04,0.3c-0.16,1.18-0.33,2.39-0.88,2.94c-0.15,0.15-0.33,0.32-0.54,0.51
		c-0.44,0.4-0.98,0.91-1.28,1.3c-0.22,0.29-0.35,0.57-0.41,0.75l0.32-0.06c0.84-0.16,1.8-0.34,2.64,0.33
		c0.02,0.01,1.31,1.09,1.77,2.12c0.51-0.2,1.52-0.59,1.95-0.69c0.25-0.06,0.41,0.03,0.5,0.11c0.24,0.22,0.19,0.6,0.13,1.08
		c-0.03,0.22-0.06,0.47-0.06,0.7c0,0.14,0.03,0.18,0.03,0.18c0.01,0,0.15,0.03,0.67-0.26c0.14-0.08,0.28-0.36,0.42-0.62
		c0.16-0.32,0.35-0.68,0.63-0.93c0.5-0.43,1-0.24,1.4-0.08c0.13,0.05,0.26,0.1,0.4,0.13c0.19,0.04,0.51-0.36,0.75-0.65
		c0.16-0.2,0.33-0.41,0.51-0.56c0.5-0.44,0.68-0.45,1.29-0.45l0.26,0c0.06,0,0.11-0.01,0.13-0.03c0.08-0.09,0.02-0.51-0.01-0.75
		c-0.03-0.21-0.06-0.43-0.06-0.62c0-0.21,0.09-0.38,0.26-0.47c0.35-0.19,0.92,0.03,2.02,0.75c0.08-0.18,0.17-0.58,0.17-0.83
		c0-0.45,0.58-2.04,0.91-2.5c0.03-0.15-0.4-0.69-0.62-0.95c-0.19-0.24-0.37-0.46-0.5-0.67c-0.2-0.34-0.32-0.62-0.23-0.88
		c0.09-0.28,0.37-0.4,0.56-0.48c0.49-0.21,1.94-0.39,3.31-0.33c0.2,0.01,0.33,0,0.41,0c-0.06-0.17-0.14-0.42-0.05-0.7
		c0.16-0.49,0.92-0.83,1.89-1.21c0.25-0.1,0.46-0.18,0.57-0.24c0.64-0.36,0.98-0.02,1.6,0.6c0.02,0.02,0.04,0.04,0.06,0.06
		c0-0.01,0.01-0.02,0.01-0.03c0.08-0.19,0.18-0.44,0.39-0.68c0.56-0.62,1.75-1.09,2.3-0.72c0.57,0.38,0.89,1.75,0.93,1.9
		c0.01,0.06,0.03,0.08,0.03,0.08c0.07-0.01,0.42-0.22,0.6-0.34c0.38-0.24,1.29-0.26,2.44-0.27c0.35,0,0.65,0,0.81-0.02
		c0.1-0.06,0.09-0.35,0.09-0.5c-0.01-0.18-0.01-0.37,0-0.56c0.08-0.82,0.38-1,1.53-1.25c0.33-0.07,0.46-0.12,0.5-0.15
		c-0.01-0.01-0.01-0.03-0.02-0.06c-0.01-0.12-0.04-0.3,0.01-0.53c0.08-0.4,0.35-0.43,0.44-0.43c0,0,0,0,0,0
		c0.53,0,1.01,1.11,1.08,1.46c0.07,0.31,0.24,0.56,0.4,0.8c0.09,0.14,0.18,0.27,0.25,0.41c0.05,0.1,0.1,0.11,0.15,0.12
		c0.07,0.01,0.22-0.01,0.47-0.14c0.17-0.09,0.43-0.19,0.67-0.1c0.25,0.09,0.34,0.33,0.41,0.51c0.05,0.12,0.12,0.27,0.2,0.47
		c0.39,0.88,0.78,1.78,0.87,2.2c0.05,0.21,0.12,0.45,0.2,0.68c0.12,0.39,0.24,0.76,0.24,1.03c0,0.26,0.3,0.62,0.6,0.96
		c0.34,0.4,0.14,1.05-0.06,1.69c-0.04,0.14-0.09,0.28-0.12,0.41c0.32-0.22,0.81-0.65,1.11-1c0.24-0.27,0.54-0.36,0.84-0.25
		c0.31,0.12,0.56,0.46,0.61,0.81c0.1-0.02,0.23-0.06,0.32-0.09c0.19-0.06,0.42-0.12,0.62-0.15c0.29-0.03,0.44,0.08,0.52,0.19
		c0.21,0.29,0.04,0.69-0.14,1.12c-0.04,0.09-0.08,0.19-0.11,0.27c0.02,0.02,0.17,0.1,0.27,0.16c0.25,0.14,0.6,0.32,0.81,0.67
		c0.25,0.42,0.32,0.69,0,0.96c-0.05,0.04-0.08,0.07-0.11,0.13c-0.01,0.07,0.12,0.18,0.43,0.22c0.46,0.06,0.59,0.3,0.72,0.54
		c0.07,0.13,0.16,0.29,0.33,0.48c0.06,0.07,0.09,0.08,0.09,0.08c0.01-0.04,0.15-0.29,0.25-0.48c0.1-0.17,0.2-0.36,0.33-0.55
		c0.42-0.62,0.88-1.2,1.38-1.7c0.34-0.34,0.79-0.45,1.28-0.57c0.14-0.03,0.28-0.07,0.42-0.11c-0.04-0.05-0.08-0.1-0.11-0.14
		c-0.1-0.12-0.21-0.25-0.29-0.39c-0.06-0.11-0.11-0.2-0.16-0.3c-0.13-0.26-0.21-0.42-0.46-0.57c-0.54-0.31-0.58-0.61-0.58-0.94
		c0-0.56,1.37-1.36,1.38-1.37c0.42-0.24,2.07-1.22,2.43-1.46c0.65-0.43,1.22,0.27,1.94,1.16c0.07,0.08,0.12,0.15,0.17,0.2
		c0.06-0.12,0.14-0.26,0.31-0.34c0.05-0.11,0.02-0.71-0.13-1.73l-0.04-0.27c-0.08-0.64,0.38-1.4,0.64-1.66
		c0.15-0.15,1.97-1.82,2.7-2.03c0.6-0.18,0.79-0.28,1.06-0.49c0.1-0.08,0.32-0.34,0.52-0.58c0.34-0.41,0.73-0.86,1.07-1.13
		c0.42-0.33,0.69-0.4,0.95-0.48c0.1-0.03,0.21-0.06,0.34-0.11c0.22-0.09,0.58-0.85,0.73-1.55c0.13-0.57,0.81-0.66,1.47-0.75
		c0.29-0.04,0.59-0.08,0.81-0.15c0.25-0.08,0.29-0.22,0.2-0.85c-0.02-0.19-0.05-0.38-0.05-0.57c0-0.38,0.18-0.56,0.33-0.65
		c0.33-0.19,0.83-0.08,1.49,0.32c0.12,0.07,0.22,0.14,0.3,0.19c0.26,0.17,0.26,0.17,0.66,0.03c0.23-0.08,0.43-0.08,0.61,0.01
		c0.33,0.16,0.45,0.55,0.57,0.92c0.05,0.17,0.11,0.35,0.19,0.51c0.03,0.05,0.05,0.07,0.05,0.07c0.07-0.01,0.33-0.21,0.58-0.59
		c0.33-0.5,0.88-0.76,1.46-0.69c0.06,0.01,0.08,0,0.08,0c0.01-0.03,0.02-0.19,0.03-0.3c0.01-0.08,0.01-0.15,0.03-0.23
		c0.1-0.66,3.62-3.53,3.66-3.56c0.04-0.03,0.07-0.05,0.1-0.08l0.62,0.31c0.39,0.27,1.02,0.68,1.32,0.84
		c0.56,0.28,1.27,1.14,1.07,1.72c-0.14,0.42-1.12,1.62-1.83,1.9l-0.29,0.11c-0.57,0.22-1.35,0.53-1.74,0.78l-0.35,0.22
		c-1.46,0.92-2.86,1.8-3.25,1.94c-0.08,0.03-0.16,0.06-0.25,0.09c-0.33,0.11-0.82,0.28-0.78,0.47c0.05,0.24,0.24,0.65,0.42,1.03
		c0.19,0.42,0.4,0.86,0.49,1.21c0.18,0.65,0.54,1.54,0.75,1.86c0.06,0.08,0.11,0.19,0.17,0.31c0.28,0.56,0.42,0.67,0.67,0.56
		c0.74-0.31,1.11-0.46,1.74-0.39c0.11,0.01,0.28,0.04,0.47,0.07c1.23,0.2,1.92,0.23,2.07,0.1c0.16-0.19,1.76-1.71,2.39-1.2
		c0.69,0.56,1.79,1.17,2.03,1.08c0.52-0.32,0.92-0.52,1.47-0.59c0.46-0.06,1.67-0.6,1.84-0.77l0.11-0.11
		c0.59-0.62,0.98-0.94,1.33-0.87c0.16,0.03,0.28,0.13,0.35,0.29c0.26,0.61,1.06,2.02,1.34,2.15c0,0,1.41,0.41,1.62,1
		c0.06,0.16,0.04,0.32-0.05,0.45c-0.19,0.29-0.62,0.63-0.97,0.9c-0.05,0.04-0.09,0.07-0.13,0.1c0.01,0.01,0.03,0.02,0.04,0.03
		c0.21,0.18,0.5,0.42,0.55,0.76c0.05,0.37,0.43,1,0.8,1.08c0.16,0.04,0.46,0.06,0.78,0.09c1.03,0.09,1.62,0.16,1.77,0.53
		c0.2,0.35,2.25,2.08,2.67,2.13c0.19,0.02,0.46,0.06,0.75,0.11c0.48,0.08,1.37,0.21,1.56,0.15l0.14-0.05
		c0.38-0.15,1.09-0.42,1.82,0.24c0.64,0.58,1.91,1.43,2.42,1.66c0.37,0.17,0.82,0.45,0.81,0.84c0,0.18-0.1,0.42-0.51,0.59
		c-0.65,0.26-1.29,0.77-1.33,0.94c0,0.36-0.17,1.29-0.72,1.75c-0.35,0.3-0.38,0.51-0.38,0.74c0,0.34,0.13,1.59,0.33,2
		c0.22,0.44,0.68,0.96,0.89,1.06c0.04-0.04,0.09-0.1,0.14-0.16c0.21-0.26,0.56-0.7,1.25-0.58l0.56,0.09
		c0.68,0.11,1.48,0.24,1.95,0.34c0.43,0.09,1.4,0.29,1.94,0.41c0.01-0.33,0.01-0.71,0.01-1.14c0-0.98,0.99-0.98,1.41-0.98
		c0.78,0,0.97,0.19,1.29,0.58c0.05,0.06,0.1,0.13,0.17,0.2c0.3,0.34,0.97-0.09,1.17-0.23c0.17-0.12,0.19-0.5,0.06-1.01
		c-0.04-0.12-0.45-0.82-0.74-1.32c-0.35-0.6-0.68-1.16-0.77-1.38c-0.22-0.5,0.02-1.12,0.63-1.64c0.39-0.34,0.56-0.48,0.56-1.6
		c0-0.42,0.19-0.62,0.34-0.72c0.51-0.31,1.37,0.14,2.13,0.55c0.25,0.14,0.5,0.26,0.62,0.3c0.02,0,0.06-0.03,0.08-0.06
		c0.23-0.29,0.33-1.09,0.17-1.38c-0.19-0.33-0.13-0.58-0.05-0.73c0.16-0.3,0.53-0.47,1.21-0.53c0.14-0.01,0.18-0.04,0.18-0.04
		c-0.02-0.03-0.12-0.3-0.2-0.51l-0.12-0.32c-0.31-0.85-0.38-1.22,0.07-1.67c0.26-0.26,0.46-0.67,0.46-0.94
		c0-0.3-0.16-0.86-0.41-1.02l-0.1-0.07c-0.35-0.23-0.75-0.49-0.89-1.17c-0.08-0.09-0.39-0.04-0.57,0c-0.26,0.04-0.57,0.1-0.86,0.07
		c-0.15-0.01-0.54-0.04-0.65-0.35c-0.11-0.31,0.16-0.58,0.4-0.81l0.11-0.1c0.28-0.28,1.15-0.98,1.64-1.06
		c0.43-0.07,1.63,0.12,2.15,0.56c0.15,0.13,0.54,0.32,0.91,0.5c0.64,0.32,1.1,0.56,1.33,0.81c0.16-0.08,0.47-0.36,0.7-0.56
		c0.48-0.43,1.03-0.92,1.58-1.11c0.31-0.11,0.57-0.09,0.75,0.06c0.34,0.28,0.26,0.83,0.19,1.37c-0.03,0.24-0.07,0.51-0.04,0.62
		c0.1,0.45-0.12,0.72-0.29,0.94c-0.11,0.14-0.21,0.26-0.25,0.44c0.19,0.02,0.65-0.09,0.88-0.14c0.12-0.03,0.23-0.05,0.33-0.07
		c0.83-0.17,1.12,0.25,1.32,0.65c0.03,0.06,0.07,0.08,0.42,0.04c0.13-0.01,0.26-0.03,0.4-0.03c0.31,0,0.7-0.27,1.17-0.81
		c0.37-0.42,0.96-0.23,1.53-0.04c0.4,0.13,0.85,0.29,1.23,0.24c0.61-0.08,0.64-0.12,0.75-0.29c0.05-0.08,0.11-0.17,0.21-0.28
		c0.23-0.26,0-0.83-0.25-1.12c-0.31-0.37-0.26-0.68-0.22-0.94c0.01-0.08,0.03-0.15,0.03-0.24c0-0.37,0-0.71-0.06-1.12
		c-0.05-0.37,0.18-0.68,0.4-0.98c0.14-0.19,0.28-0.38,0.35-0.57c0.2-0.59,1.15-0.83,2.58-1.13l0.02-0.03l0.06,0.01l0.67,0.48
		l0.45-0.2c-0.14,0.08-0.28,0.15-0.45,0.2c0.53,0.38,1.18,0.85,1.37,0.99c0.33,0.25,0.65,0.25,0.95,0.01
		c0.12-0.1,0.23-0.21,0.32-0.31c0.28-0.3,0.62-0.67,1.25-0.4c0.1,0.04,0.24,0.11,0.39,0.18c0.33,0.15,1.15,0.53,1.51,0.6
		c0.01-0.57,0.06-1.11,0.39-1.4c0.15-0.13,0.34-0.19,0.55-0.16c0.71,0.1,1.52,0.59,1.88,1.14c0.27,0.4,0.38,0.41,0.73,0.29
		c0.1-0.03,0.21-0.08,0.33-0.14c0.43-0.19,0.91-0.4,1.27-0.19c0.12,0.07,0.27,0.21,0.31,0.5c0.02,0.17,0.03,0.36,0.03,0.54
		c0,0.11,0.01,0.26,0.02,0.38c0.31-0.21,0.55-0.22,0.71-0.22c0.15-0.01,0.19-0.01,0.33-0.24c0.14-0.22,0.26-0.53,0.38-0.83
		c0.22-0.55,0.39-0.98,0.7-1.12c0.12-0.05,0.26-0.06,0.38,0c0.36,0.15,1.7,1.05,1.7,1.71c0,0.24,0.28,0.52,0.52,0.52
		c0.07,0,0.14-0.01,0.21-0.03c0.51-0.09,0.87,0.01,1.09,0.84c0.22,0.79,0.5,0.74,0.72,0.69c0.24-0.05,0.24-0.05,0.57-0.44l0.26-0.3
		c0.3-0.35,0.73-0.68,1.15-1c0.38-0.29,0.77-0.59,0.91-0.81c0.09-0.14-0.02-0.36-0.19-0.69c-0.14-0.26-0.28-0.53-0.28-0.8v-1.58
		c0-0.4-0.2-0.83-0.54-1.43c-0.23-0.41-0.24-0.79-0.03-1.07c0.13-0.17,0.47-0.43,1.22-0.22c0.37,0.1,0.86,0.23,1.36,0.35
		c0.78,0.2,1.51,0.38,1.82,0.49l0.22,0.07c0.54,0.16,1.35,0.41,1.24,1.11c-0.04,0.21-0.15,0.39-0.25,0.54
		c-0.03,0.05-0.08,0.13-0.1,0.18c0,0,0,0,0,0c0.03,0,0.13,0.05,0.36,0.09c0.97,0.21,1.58,0.88,1.6,1.41
		c0.02,0.29-0.14,0.52-0.41,0.61c-0.14,0.05-0.3,0.07-0.47,0.09c-0.23,0.03-0.48,0.07-0.55,0.17c-0.05,0.07-0.04,0.2-0.02,0.3
		c0.17,0.95,0.19,1.25-0.42,1.86c-0.14,0.14-0.29,0.25-0.42,0.35c-0.34,0.26-0.46,0.34-0.33,0.75c0.23,0.76,0.98,1.69,1.53,1.69
		c0.11,0,0.25,0.01,0.4,0.01c0.83,0.03,2.08,0.08,2.69-0.65l0.1-0.12c0.58-0.69,0.7-0.84,1.25-0.67c0.09,0.03,0.21,0.06,0.37,0.1
		c0.38,0.08,0.7,0.12,1.01,0.15c0.37,0.05,0.71,0.09,1.09,0.18c0.75,0.19,0.93,0.6,1.21,1.23l0.09,0.2
		c0.38,0.84,1.39,2.15,1.97,2.15c0.16,0,0.34,0.01,0.54,0.01c0.47,0.02,1.58,0.05,1.75-0.12c0.05-0.38,0.58-1.92,1.12-2.29
		c0.16-0.11,0.31-0.11,0.4-0.1l0.15,0.03c0.37,0.08,0.72,0.16,1.14-0.08c0.18-0.1,0.34-0.25,0.51-0.4c0.35-0.32,0.75-0.68,1.43-0.8
		l0.33-0.06c0.68-0.14,1.17-0.23,1.65,0.44c0.43,0.6,1.05,1.13,1.47,0.97c0.41-0.15,2.8-0.6,3.14,0.07c0.14,0.22,1.26,0.69,1.52,0.6
		c0.44-0.18,1.03-0.32,1.36-0.02c0.14,0.12,0.27,0.37,0.14,0.81c-0.1,0.32-0.23,0.54-0.34,0.71c-0.19,0.31-0.26,0.43-0.02,0.88
		c0.45,0.82,0.71,0.94,0.8,0.95c0.02,0,0.09,0.01,0.21-0.1c0.13-0.13,0.24-0.33,0.35-0.54c0.25-0.47,0.57-1.05,1.37-1.05
		c0.22,0,0.5,0.03,0.81,0.06c0.65,0.06,1.63,0.15,1.91-0.09c0.03-0.03,0.06-0.06,0.06-0.15c0-0.2-0.01-0.41-0.01-0.61
		c-0.03-0.86-0.06-1.67,0.61-1.79c0.44-0.07,1.6,0.27,2.24,0.49c0.06-0.2,0.13-0.4,0.19-0.54c0.19-0.49,1.33-1.72,1.84-1.92
		c0.04-0.05,0.09-0.41-0.26-1.35c-0.12-0.32-0.04-0.52,0.06-0.63c0.26-0.33,0.82-0.25,1.41-0.16l0.28,0.04
		c0.33,0.04,0.54-0.19,0.88-0.6c0.11-0.13,0.23-0.27,0.36-0.4c-0.08-0.22-1.28-0.92-2.14-1.24c-0.13-0.05-0.13-0.05-0.3,0.2
		c-0.15,0.23-0.35,0.53-0.77,0.64c-0.89,0.22-1.37-0.91-1.65-1.58l-0.04-0.1c-0.23-0.53-0.21-1.21-0.2-1.81
		c0-0.14,0.01-0.27,0.01-0.4c0-0.87,0.28-1.57,0.84-2.14c0.13-0.13,0.15-0.19,0.15-0.19c-0.04-0.05-0.36-0.19-0.6-0.29l-0.21-0.09
		c-0.28-0.13-0.44-0.3-0.48-0.52c-0.06-0.39,0.29-0.71,0.67-1.04c0.1-0.09,0.21-0.18,0.3-0.28c0.44-0.44,1.22-0.54,1.9-0.64
		c0.24-0.03,0.47-0.07,0.67-0.11c0.27-0.06,0.52,0,0.74,0.18c0.52,0.42,0.72,1.43,0.72,1.96c0,0.58,0.38,1.11,0.98,1.38
		c0.08,0.04,0.14,0.05,0.18,0.07c-0.02-0.08-0.06-0.2-0.16-0.38c-0.39-0.69-0.23-2.35,0.47-3.04c0.52-0.52,0.23-0.91,0.08-1.06
		c-0.37-0.37-0.04-0.88,0.25-1.34c0.13-0.2,0.32-0.51,0.32-0.64c0-0.2,0.06-0.4,0.12-0.61c0.11-0.4,0.23-0.82,0-1.35
		c-0.14-0.3-0.15-0.61-0.03-0.9c0.19-0.48,0.68-0.77,0.92-0.88c0.15-0.34,0.63-1.4,0.76-2c0.04-0.19,0.06-0.3,0.06-0.36
		C257.99,119.15,257.85,119.15,257.73,119.15z"/>
	<path class="st1" d="M20.72,72.29c-0.86-0.37-1.78-0.02-2.66,0.33c-0.48,0.19-0.92,0.36-1.33,0.41c-0.54,0.07-0.64-0.08-1.06-0.8
		c-0.17-0.29-0.37-0.65-0.66-1.03c-0.76-1.02-1.8-0.9-2.63-0.81c-0.44,0.05-0.85,0.09-1.22,0c-1.09-0.28-1.41,0.33-1.6,0.69
		c-0.12,0.23-0.19,0.34-0.39,0.41c-0.96,0.32-1.11,0.75-1.2,1.31c0,0.01,0,0.03-0.01,0.04c-0.44-0.15-1.22-0.77-1.24-1.04
		c0-0.36-0.16-0.58-0.29-0.7c-0.41-0.38-1.08-0.34-1.87-0.3c-0.48,0.03-1.13,0.04-1.2-0.06c-0.03-0.05-0.12-0.27,0.21-1.09
		c0.21-0.53,0.84-1.13,1.29-1.56c0.11-0.11,0.22-0.21,0.3-0.29c0.39-0.39,0.47-0.84,0.54-1.27c0.04-0.25,0.09-0.5,0.19-0.77
		c0.29-0.73,1.13-1,1.78-1.09c0.99-0.14,1.25-0.38,1.31-1.18c0.01-0.13,0.02-0.28,0.05-0.48c0.18-1.1-0.57-2.21-1.65-3.65
		C7,58.87,6.58,58.56,6.17,58.37c0.04-0.17,0.6-2.38,1.17-4.1c0.21,0.16,0.48,0.24,0.78,0.24c1.07,0,1.45-0.43,1.76-0.77
		c0.12-0.13,0.21-0.24,0.35-0.33c0.17-0.11,0.32-0.24,0.46-0.37c0.35-0.31,0.54-0.48,1.22-0.37c0.78,0.13,1.38,0.67,2.08,1.29
		c0.24,0.22,0.49,0.44,0.75,0.64c0.39,0.31,0.76,0.41,1.1,0.3c0.67-0.21,0.92-1.08,1.29-2.39c0.06-0.22,0.12-0.44,0.19-0.68
		c0.13,0.04,0.29,0.06,0.49,0.01c0.34-0.08,0.52-0.28,0.6-0.43c0.25-0.42,0.11-0.95-0.04-1.51c-0.09-0.34-0.18-0.69-0.2-0.97
		c0.19-0.17,1.35-0.1,3.02,0.45c0.5,0.16,0.79,0.02,0.95-0.13c0.43-0.41,0.24-1.12-0.01-2.01c-0.13-0.48-0.28-1.02-0.28-1.39
		c0-0.4,0-0.81,0.02-0.88c0.02-0.01,0.12-0.05,0.49-0.05c0.56,0,0.83-0.3,0.94-0.48c0.35-0.56,0.18-1.54-0.49-2.89
		c-0.36-0.72-0.08-1.08,0.31-1.58c0.1-0.12,0.19-0.24,0.27-0.36c0.07-0.11,0.74-0.03,1.02,0c0.48,0.05,1.02,0.11,1.51,0.01
		c1.26-0.25,1.94-1.61,2.39-2.51c0.23-0.47,0.7-0.95,2.4-0.95c1.25,0,1.62-0.54,1.88-1.05c0.03-0.07,0.09-0.18,0.12-0.2
		c0.47-0.16,1.75-0.17,2.64,0.36c0.32,0.19,0.49,0.35,0.67,0.52c0.37,0.34,0.73,0.67,1.9,0.96c1.39,0.35,2.73-0.42,3.71-0.99
		c0.32-0.19,0.63-0.36,0.87-0.46c0.37-0.15,0.64-0.17,0.9-0.19c0.39-0.03,0.83-0.06,1.31-0.54c0.64-0.64,1.27-1.48,1.88-2.29
		c0.15-0.2,0.26-0.37,0.33-0.5c0,0,0,0,0.01,0c0.37,0.25,0.85,0.28,1.31,0.09c0.65-0.27,1.14-0.89,1.29-1.63
		c0.11-0.55,0.24-0.61,1.69-0.78l0.33-0.04c1.23-0.15,1.66-0.99,2.03-1.72c0.24-0.46,0.46-0.9,0.87-1.24
		c0.27-0.23,0.42-0.24,0.45-0.23c0.13,0.06,0.36,0.55,0.36,1.47c0,0.52,0.13,0.9,0.4,1.16c0.41,0.4,0.97,0.38,1.57,0.36l0.37-0.01
		c0.6,0,0.9,0.26,1.4,0.68c0.17,0.14,0.34,0.29,0.54,0.44c0.73,0.55,1.73,0.22,2.78-0.12c0.49-0.16,1-0.33,1.46-0.39
		c1.21-0.18,3.74,0.95,4.76,1.56c0.42,0.25,0.73,0.14,0.87,0.05c0.51-0.32,0.44-1.1,0.34-2.27c-0.05-0.62-0.12-1.33-0.05-1.8
		c0.02-0.16,0.06-0.21,0.06-0.21c0.29-0.12,1.51,0.64,2.32,1.13l0.74,0.45c1.07,0.64,1.24,0.74,1.55,0.44
		c0.29-0.29,0.08-0.64,0.01-0.77c-0.22-0.36-0.21-0.47-0.13-0.56c0.48-0.48,0.7-0.83,0.9-1.14c0.15-0.24,0.29-0.45,0.53-0.69
		c0.11-0.11,0.24-0.24,0.38-0.36c0.69-0.65,1.4-1.32,1.39-1.99c0.11-0.25,1.19-0.77,2.44-0.97c0.93-0.15,2.39,1.06,2.76,1.62
		c0.25,0.38,0.55,1.35,0.81,2.21c0.12,0.39,0.24,0.77,0.35,1.13c0.48,1.45,1.59,1.23,2.47,1.05c0.17-0.03,0.34-0.07,0.53-0.1
		c0.57-0.09,0.93-0.21,1.19-0.37c0.5,0.7,1.31,1.65,1.94,1.47c0.17-0.05,0.37-0.12,0.57-0.19c0.19-0.07,0.48-0.17,0.67-0.22
		c-0.02,0.14-0.07,0.36-0.18,0.7c-0.07,0.21-0.14,0.42,0.03,0.59c0.19,0.19,0.38,0.14,1.1-0.07c0.63-0.18,1.4-0.09,1.66,0.11
		c0.03,0.02,0.07,0.06,0.07,0.09c0,0.24,0.03,0.54,0.06,0.86c0.04,0.42,0.1,0.9,0.06,1.24c-0.02,0.15-0.06,0.35-0.11,0.56
		c-0.14,0.62-0.29,1.27-0.01,1.62c0.08,0.1,0.23,0.22,0.49,0.22c0.54,0,1.32,0.46,1.39,0.59c-0.11,0.33-0.22,1.75,0.11,2.21
		c0.1,0.13,0.23,0.21,0.38,0.21c0.09,0,0.27-0.02,0.51-0.04c0.35-0.04,1.35-0.15,1.68-0.06c-0.02,0.57,0.28,1.51,0.6,1.83
		c0.05,0.05,0.05,0.1,0.01,0.33c-0.02,0.12-0.04,0.25-0.04,0.39c0,0.29,0.4,2.32,1.06,2.6c0.36,0.15,0.95,0.58,1,1.06
		c0.02,0.22,0.16,0.53,0.39,1.03c0.18,0.39,0.53,1.16,0.53,1.43c-0.06-0.01-0.19-0.04-0.41-0.15l-0.65-0.32
		c-1.08-0.53-1.37-0.67-1.63-0.46c-0.23,0.19-0.15,0.5-0.09,0.76c0.14,0.57-0.38,0.96-0.61,1.09c-0.05,0.03-0.12,0.07-0.21,0.12
		c-1.15,0.63-1.87,1.12-1.93,1.61c-0.07,0.54-0.67,2.59-0.85,2.82c-0.04,0.04-0.1,0.1-0.17,0.16c-0.36,0.32-0.91,0.81-0.63,1.29
		c0.16,0.27,0.65,1.99,0.6,2.29c-0.04,0.09-0.21,0.33-0.35,0.53c-0.38,0.54-0.61,0.88-0.61,1.15c0,0.27-0.24,1.55-0.36,1.9
		c-0.03,0.09-0.05,0.2-0.08,0.31c-0.09,0.43-0.16,0.58-0.35,0.6c-0.42,0.05-0.99-0.26-1.19-0.64c-0.03-0.06-0.03-0.07-0.02-0.11
		c0.09-0.46-0.28-0.62-1.26-1.04c-1.34-0.57-2.57-0.77-2.99-0.49c-0.12,0.08-0.19,0.21-0.19,0.34c0,0.11,0.03,0.22,0.06,0.3
		c0.01,0.02,0.02,0.05,0.03,0.06c-0.02,0.01-0.05,0.02-0.09,0.03c-0.13,0.03-0.26,0.05-0.39,0.07c-0.47,0.08-0.92,0.15-1.08,0.55
		c-0.06,0.15-0.36,0.46-0.56,0.67c-0.14,0.15-0.27,0.29-0.34,0.38l-0.11,0.14c-0.21,0.27-0.51,0.65-0.63,1.01
		c-0.03,0.09-0.21,0.28-0.34,0.41c-0.31,0.33-0.67,0.7-0.53,1.1c0.06,0.19,0.28,0.45,0.64,0.87c0.29,0.34,0.91,1.05,0.91,1.28
		c0,0.13-0.02,0.29-0.03,0.45c-0.05,0.54-0.12,1.22,0.33,1.6c0.07,0.06,0.17,0.14,0.29,0.23c0.55,0.44,1.85,1.46,1.85,2.16
		c0,1.12,2.02,3.62,2.64,3.85c0.47,0.18,2.08,1.75,2.11,2.15c0,0.41,0,1.68-0.15,1.99c-0.21,0.42-0.14,1.76,0.18,2.28
		c0.15,0.25,0.34,0.3,0.47,0.3c0.91,0,2.35,0.14,2.61,0.36c0.53,0.45,1.05,0.45,1.52,0.45c0.46,0,1.2,0.24,1.25,0.4
		c-0.01,0.11-0.06,0.24-0.1,0.37c-0.11,0.32-0.31,0.91,0.35,1.21c0.48,0.21,1.85,1.53,2.01,2.22c0.05,0.2,0.1,0.39,0.15,0.56
		c0.15,0.53,0.23,0.86,0.09,1.06l-0.1,0.14c-0.32,0.44-0.68,0.93-0.42,1.43c0.12,0.24-0.03,0.64-0.16,0.74
		c-0.4,0.3-0.52,0.98-0.27,1.41c0.08,0.17-0.13,0.83-0.28,0.93c-0.29,0.12-1.32,0.35-1.88,0.35c-0.57,0-0.93-0.1-1.23-0.65
		c-0.17-0.32-0.34-0.82-0.5-1.3c-0.17-0.51-0.33-1-0.51-1.28c-0.37-0.6-1.41-1.08-1.89-1.08l-0.19-0.01
		c-0.54-0.02-1.45-0.06-1.62,0.62l-0.04,0.16c-0.1,0.41-0.22,0.91-0.5,1.19c-0.24,0.23-0.53,0.52-0.45,0.88
		c0.07,0.34,0.44,0.47,0.56,0.52c0.43,0.16,0.99,0.84,1.15,1.17c-1.84,1.12-2.25,1.59-2.29,1.94c-0.02,0.2-0.01,0.43,0.01,0.66
		c0.01,0.18,0.03,0.47,0,0.59c-0.44,0.12-1.87,0.81-3.02,1.39c-0.15,0.08-1.03,0.7-1.05,1.21c-0.01,0.17,0.07,0.32,0.22,0.4
		c0.19,0.11,0.38,0.34,0.38,0.51c-0.32,0.32-1.45,1.94-1.53,2.56c-0.03,0.21,0.02,0.48,0.08,0.78c0.03,0.18,0.09,0.48,0.08,0.64
		c-0.15-0.04-0.28-0.09-0.41-0.13c-0.42-0.14-0.81-0.28-1.49-0.17c-0.44,0.07-0.68,0.28-0.84,0.42c-0.17,0.15-0.18,0.16-0.41,0.04
		c-0.96-0.48-1.73-0.53-2.01-0.53c-0.28,0-0.35-0.01-0.45-0.39c-0.1-0.4-0.43-0.66-0.78-0.93c-0.22-0.17-0.45-0.35-0.66-0.58
		c-0.48-0.54-1.51-1.4-2.3-1.22c-0.25,0.06-0.53,0.19-0.82,0.34c-0.36,0.18-0.81,0.4-1.05,0.35c-0.83-0.18-1.52-0.47-1.61-0.61
		c-0.7-1.17-1.35-1.04-1.67-0.86c-0.1,0.06-0.21,0.12-0.34,0.2c-0.4,0.24-1.14,0.7-1.39,0.51c-0.09-0.07-0.17-0.15-0.25-0.22
		c-0.41-0.39-0.79-0.64-1.66-0.11c-1.07,0.64-1.65,2.47-1.65,2.96c0,0.79,0.12,2.12,0.94,2.12c0.52,0,1.99,0.61,2.13,0.86
		c0.03,0.19-0.06,0.38-0.16,0.62c-0.08,0.18-0.16,0.36-0.21,0.57c-0.09,0.37-0.55,1.92-0.76,2.63c-0.62-0.18-1.24-0.39-1.63-0.59
		c-0.76-0.38-1.78-1.91-2.26-2.89c-0.39-0.78-1.09-0.98-1.65-1.15c-0.27-0.08-0.52-0.15-0.68-0.27c-0.56-0.42-1.89-0.59-3.71-0.78
		c-0.33-0.03-0.63-0.06-0.82-0.05c-0.08-0.17-0.1-0.88,1.43-3.87l0.14-0.28c0.25-0.5,0.15-0.85,0.02-1.06
		c-0.37-0.6-1.33-0.6-2.18-0.6c-0.51,0-1.13-0.45-1.68-0.84c-0.25-0.18-0.48-0.35-0.71-0.49c-0.82-0.49-2.14-0.13-3.41,0.22
		c-0.24,0.07-0.48,0.13-0.7,0.19c-0.03,0.01-0.06,0.01-0.08,0.02c-0.04-0.22,0.05-0.75,0.1-1.09c0.07-0.41,0.13-0.84,0.13-1.24
		c0-1.5-1.01-1.6-1.82-1.68c-0.15-0.02-0.31-0.03-0.47-0.06c-0.68-0.1-0.97-1.08-1.14-1.93c-0.1-0.49-0.39-1.75-0.98-2.92
		c-0.59-1.17-2.84-1.99-4.49-1.99c-1.22,0-2.17,0.65-3.01,1.23c-0.38,0.26-0.73,0.5-1.1,0.69c-0.86,0.43-4.46-0.9-5.64-1.34
		c-0.29-0.11-0.52-0.19-0.67-0.24c-0.72-0.24-2.8-3.18-2.93-3.82c-0.22-1.1-2.58-2.42-3.73-2.86c-0.77-0.29-2.06-0.77-2.17-1.34
		c-0.05-0.27-0.14-0.53-0.23-0.77c-0.16-0.44-0.24-0.71-0.13-0.93c0.12-0.23,1.36-0.21,2.18-0.2c0.3,0,0.62,0.01,0.95,0.01
		c0.53,0,0.83-0.18,0.9-0.52C25.71,74.95,25.8,74.47,20.72,72.29z M104.44,18.82c-0.25,0.13-0.4,0.36-0.59,0.65
		c-0.26,0.41-0.58,0.92-1.28,1.2c-0.36,0.14-0.67,0.24-0.96,0.33c-0.52,0.16-0.9,0.27-1.37,0.63c-0.51,0.38-1.86,1.4-2.89,0.36
		c-0.29-0.28-1.59-0.18-2.3-0.12c-0.38,0.03-0.73,0.06-1.02,0.06c-0.71,0-1.54,0.37-2.55,1.12c-0.22,0.17-0.48,0.33-0.75,0.5
		c-0.51,0.32-1.29,0.81-1.29,1.14c0,0.95-0.25,1.64-0.66,2.46l-0.09,0.18c-0.09,0.19-0.18,0.35-0.27,0.49
		c0.51,0.72,1.09,1.31,1.3,1.31c0,0,0.01,0,0.01,0c0.16-0.05,0.35-0.12,0.53-0.18c0.67-0.24,1.03-0.36,1.28-0.22l0.12,0.06
		l0.08,0.19c0.07,0.28-0.01,0.66-0.13,1.05c0.09-0.03,0.2-0.06,0.31-0.09c0.69-0.2,1.7-0.17,2.21,0.21c0.26,0.2,0.32,0.43,0.32,0.59
		c0,0.22,0.03,0.5,0.06,0.79c0.05,0.47,0.1,0.96,0.06,1.37c-0.02,0.17-0.07,0.39-0.12,0.64c-0.07,0.31-0.22,0.96-0.13,1.1
		c0.65,0.01,1.56,0.42,1.87,0.86c0.16,0.23,0.15,0.42,0.11,0.54c-0.1,0.3-0.11,1.28-0.01,1.58c0.09-0.01,0.2-0.02,0.34-0.03
		c1.29-0.14,1.96-0.15,2.24,0.14c0.1,0.1,0.15,0.24,0.13,0.38c-0.05,0.42,0.23,1.25,0.41,1.43c0.28,0.28,0.23,0.62,0.19,0.87
		c-0.02,0.09-0.03,0.19-0.03,0.29c0,0.36,0.43,1.87,0.69,2.03c0.43,0.19,1.29,0.76,1.37,1.56c0.01,0.12,0.19,0.52,0.34,0.83
		c0.51,1.1,0.79,1.8,0.41,2.17c-0.3,0.29-0.79,0.11-1.14-0.06l-0.66-0.32c-0.33-0.16-0.63-0.31-0.84-0.4c0.24,1-0.62,1.61-0.89,1.77
		c-0.05,0.03-0.13,0.07-0.23,0.13c-1.34,0.74-1.59,1.03-1.62,1.14c-0.05,0.41-0.68,2.83-1.03,3.18c-0.05,0.05-0.12,0.11-0.2,0.18
		c-0.13,0.12-0.48,0.43-0.5,0.55c0.18,0.27,0.83,2.31,0.63,2.79c-0.06,0.15-0.2,0.35-0.42,0.66c-0.17,0.23-0.48,0.67-0.5,0.8
		c0,0.35-0.26,1.69-0.39,2.09c-0.02,0.07-0.04,0.16-0.06,0.25c-0.08,0.38-0.22,1.02-0.89,1.09c-0.7,0.08-1.5-0.36-1.81-0.98
		c-0.1-0.2-0.1-0.34-0.08-0.44c-0.13-0.08-0.42-0.21-0.88-0.41c-1.16-0.49-1.94-0.57-2.27-0.56c0.04,0.14,0.08,0.33-0.03,0.52
		c-0.09,0.16-0.26,0.26-0.51,0.31c-0.14,0.03-0.29,0.06-0.42,0.08c-0.19,0.03-0.58,0.1-0.61,0.17c-0.1,0.24-0.34,0.51-0.68,0.87
		c-0.12,0.13-0.23,0.24-0.29,0.33l-0.11,0.15c-0.18,0.23-0.44,0.57-0.53,0.83c-0.07,0.22-0.27,0.43-0.48,0.65
		c-0.13,0.14-0.38,0.39-0.39,0.49c0.03,0.07,0.31,0.4,0.52,0.64c0.62,0.72,1.06,1.26,1.06,1.69c0,0.15-0.02,0.33-0.04,0.51
		c-0.04,0.42-0.09,0.89,0.11,1.07c0.06,0.05,0.16,0.13,0.27,0.21c0.73,0.57,2.09,1.65,2.09,2.65c0,0.87,1.85,3.11,2.24,3.27
		c0.52,0.2,2.51,1.96,2.51,2.73c0,1.09-0.04,1.9-0.22,2.26c-0.12,0.25-0.03,1.42,0.16,1.67c0.38,0,2.41,0.04,2.96,0.51
		c0.35,0.3,0.69,0.3,1.11,0.3c0.32,0,1.31,0.14,1.7,0.59c0.17,0.19,0.19,0.38,0.17,0.51c-0.02,0.18-0.08,0.35-0.13,0.49
		c-0.13,0.37-0.11,0.38,0.01,0.43c0.63,0.28,2.15,1.71,2.36,2.65c0.04,0.19,0.09,0.37,0.14,0.53c0.03,0.11,0.06,0.22,0.09,0.33
		c0.61-0.11,1.1-0.48,1.49-0.8c0.09-0.07,0.17-0.14,0.25-0.2c0.4-0.3,0.68-0.24,0.94-0.18c0.16,0.04,0.34,0.08,0.62,0.05
		c0.31-0.02,0.34-0.09,0.43-0.28c0.07-0.15,0.16-0.35,0.39-0.52c0.16-0.12,0.35-0.49,0.52-0.82c0.18-0.36,0.37-0.74,0.61-0.98
		c0.44-0.44,1.03-0.39,1.47-0.35c0.1,0.01,0.2,0.02,0.28,0.02c0.18,0,0.44-0.15,0.69-0.29c0.19-0.11,0.39-0.22,0.6-0.3
		c0.54-0.2,1.06,0.28,1.56,0.74c0.15,0.14,0.31,0.28,0.46,0.41c0.34,0.27,0.71,0.19,1.44-0.01c0.21-0.06,0.43-0.12,0.68-0.17
		c0.47-0.1,0.95-0.2,1.45-0.3c0.66-0.13,1.36-0.26,2.09-0.44c1.05-0.25,1.35-0.03,1.55,0.5c0.03,0.09,0.07,0.17,0.12,0.24l0.18,0.24
		c0.28,0.37,0.63,0.83,0.76,1.35c0.22-0.12,0.63-0.46,0.84-0.65c0.16-0.14,0.31-0.27,0.42-0.34c0.49-0.35,1.2,0.01,1.88,0.36
		c0.15,0.08,0.3,0.16,0.44,0.22c0.32,0.14,0.47,0.07,0.73-0.06c0.15-0.07,0.32-0.16,0.54-0.21c0.09-0.02,0.18-0.04,0.27-0.07
		c0.5-0.14,1.2-0.32,2.11,0.02c0.76,0.28,1.36,0.11,1.94-0.06l0.26-0.07c0.26-0.07,0.26-0.16,0.25-0.49c0-0.13-0.01-0.25,0.01-0.36
		c-0.01-0.15-0.41-0.67-0.6-0.93c-0.18-0.24-0.33-0.44-0.41-0.6c-0.08-0.16-0.08-0.35-0.01-0.52c0.18-0.43,0.81-0.75,1.3-0.89
		c0.26-0.08,0.3-0.17,0.4-0.38c0.07-0.14,0.15-0.32,0.31-0.5c0.47-0.55,1.34-0.2,1.9,0.08c0.2-0.61,0.34-2.79,0.34-3.91
		c0-0.43,0.19-0.63,0.36-0.72c0.34-0.19,0.83-0.1,1.46,0.27c0.47,0.27,0.73,0.25,1.21,0.22c0.17-0.01,0.36-0.02,0.59-0.02
		c0.44,0,0.77-0.42,1.08-0.83c0.16-0.21,0.31-0.4,0.48-0.55c0.45-0.39,0.94-0.29,1.34-0.21c0.18,0.04,0.35,0.07,0.52,0.07
		c0.13-0.07,0.12-0.51,0.11-0.75c-0.01-0.22-0.01-0.45,0.01-0.67c0.07-0.86,0.27-1.52,0.71-2.27c0.24-0.42,0.17-0.85,0.09-1.27
		c-0.04-0.2-0.07-0.4-0.07-0.59c0-0.28,0.14-0.5,0.38-0.61c0.42-0.2,1.01,0.02,1.36,0.32c0.12,0.1,0.51-0.33,0.7-0.54
		c0.08-0.09,0.16-0.17,0.23-0.24c0.17-0.17,0.22-0.64,0.26-0.99c0.02-0.23,0.05-0.44,0.09-0.59c0.15-0.54,0.76-0.56,1.29-0.57
		c0.15,0,0.3-0.01,0.44-0.02c0.2-0.02,0.27-0.18,0.31-0.83c0.01-0.1,0.01-0.2,0.02-0.3c0.01-0.06-0.01-0.1-0.05-0.15
		c-0.19-0.21-0.7-0.3-0.98-0.3c-0.74,0-0.74-1.06-0.74-1.84c0-0.59,0.04-1.07,0.57-1.42c0.13-0.1,0.46-0.73,0.66-1.11
		c0.27-0.52,0.5-0.97,0.7-1.17c0.56-0.56,0.83-0.46,1.59,0.24c0.28,0.26,0.37,0.3,0.39,0.3c0.11-0.05,0.27-0.11,0.53-0.08
		c0-0.02,0.2-0.25,0.2-1.71c0-0.59,0.3-0.77,0.6-0.96l0.15-0.1c0.1-0.06,0.13-0.11-0.11-0.58c-0.11-0.21-0.12-0.4-0.03-0.56
		c0.15-0.28,0.5-0.33,0.81-0.38c0.36-0.05,0.94-0.21,1.43-0.46c0.52-0.26,1.02-0.23,1.85-0.17l0.27,0.02
		c0.16,0.01,0.29-0.01,0.33-0.06c0.08-0.08,0.07-0.31,0.06-0.48c0-0.13-0.01-0.25,0.01-0.36c0-0.18-0.5-0.87-1.01-1.38
		c-0.08-0.08-0.3-0.3-0.24-0.56c0.05-0.24,0.28-0.33,0.44-0.38c0.04-0.02,0.09-0.03,0.13-0.05c0.22-0.11,1.15-0.75,1.54-1.26
		c0.11-0.14,0.3-0.32,0.54-0.33c0.27,0,0.42,0.22,0.56,0.4c0.09,0.13,0.19,0.26,0.32,0.36c0.06-0.02,0.19-0.31,0.25-0.46
		c0.07-0.17,0.14-0.33,0.22-0.44c0.28-0.42,0.71-0.38,1.13-0.35c0.14,0.01,0.3,0.02,0.48,0.02c0.29,0,0.59-0.31,0.78-0.57
		c-0.21-0.06-0.39-0.09-0.49-0.09c-0.52,0-1.45-0.35-1.77-0.91c-0.13-0.22-0.36-0.7-0.6-1.17c-0.23-0.46-0.46-0.93-0.59-1.14
		c-0.08-0.06-0.48-0.17-2.13-0.05c-0.14,0.01-0.25,0.02-0.29,0.02c-0.45,0-1.37-0.93-1.37-1.5c0-0.17-0.11-0.6-0.2-0.98
		c-0.12-0.5-0.24-0.97-0.24-1.27c0-0.48-0.06-0.7-0.22-0.79c-0.11-0.06-0.18-0.16-0.2-0.28c-0.05-0.26,0.12-0.5,0.34-0.81
		c0.12-0.18,0.36-0.51,0.34-0.63c-0.02-0.19-0.12-0.61-0.22-1.07c-0.2-0.92-0.35-1.6-0.35-1.91c0-0.29,0-0.56,0.22-0.74
		c0.23-0.19,0.57-0.17,1.09-0.06c0.37,0.07,0.38,0.04,0.42-0.15c0.03-0.12,0.06-0.27,0.17-0.39c0.26-0.26,0.92-0.25,2.24-0.15
		c0.23,0.01,0.28-0.03,0.28-0.03c0.03-0.04,0.02-0.23,0.01-0.33c-0.01-0.14-0.01-0.29,0-0.43c0.03-0.21,0.14-0.33,0.22-0.39
		c0.26-0.18,0.61-0.1,1.01,0c0.24,0.06,0.52,0.12,0.76,0.12c0.34,0,0.55-0.64,0.71-1.1c0.07-0.21,0.13-0.4,0.2-0.54
		c0.22-0.45,1.94-2.93,2.42-3.24c0.18-0.13,0.84-1.12,1.19-1.66c0.38-0.57,0.58-0.88,0.69-0.99c0.01-0.13-0.24-0.91-0.35-1.24
		c-0.09-0.27-0.16-0.49-0.18-0.61c-0.06-0.37,0.14-0.75,0.33-1.11c0.07-0.13,0.13-0.25,0.19-0.37c-0.04-0.06-0.45-0.26-1.18-0.32
		c-1.1-0.09-1.1-1.29-1.1-1.69c0-0.58,0.18-1.2,0.31-1.65c0.09-0.31-0.16-0.66-0.45-0.74c-0.15,0.02-0.63,0.57-1.08,1.35
		c-0.09,0.16-0.24,0.26-0.41,0.29c-0.39,0.06-0.82-0.33-1.21-0.73l-0.06-0.06c-0.12-0.04-0.51,0.26-0.72,0.41
		c-0.24,0.17-0.42,0.13-0.52,0.06c-0.27-0.16-0.22-0.5-0.15-0.96c0.03-0.18,0.06-0.38,0.06-0.54c0-0.22-0.33-0.5-0.6-0.66
		c-0.13,0.05-0.26,0.1-0.41,0.11c-0.48,0.03-0.97-0.2-1.48-0.71l-0.48-0.48c-1-1.02-2.25-2.29-2.85-2.05
		c-0.16,0.06-0.34,0.15-0.53,0.23c-0.82,0.37-1.75,0.8-2.49,0.48c-0.23-0.1-0.54-0.32-0.7-0.81c-0.42-1.25-0.73-1.49-1.15-1.49
		c-0.34,0-0.36,0.02-0.56,0.39c-0.07,0.12-0.14,0.26-0.24,0.4c-0.47,0.71-1.31,0.68-2.59,0.65c-0.32-0.01-0.68-0.02-1.08-0.02
		c-0.59,0-1.1,0.12-1.59,0.23c-0.97,0.23-1.98,0.46-3.34-0.29c-1.83-1.02-3.22-1.16-4.44-1.16c-2.17,0-4.56-0.07-5.44-0.96
		c-0.17-0.17-0.33-0.35-0.5-0.53c-0.61-0.67-1.24-1.36-2-1.36c-0.34,0-0.59,0.05-0.81,0.1c-0.65,0.14-1.13,0.17-1.82-0.7
		c-0.54-0.68-1.04-0.88-1.16-0.86c-0.15,0.66-0.81,1.01-1.59,0.92c-0.84-0.1-1.43-0.68-1.43-1.39c0-0.74-0.13-0.84-0.14-0.84
		c0,0-0.18-0.06-0.75,0.26c-0.45,0.26-0.82,0.5-1.15,0.71c-0.71,0.46-1.27,0.82-2.06,0.98c-0.23,0.05-0.45,0.06-0.65,0.08
		c-0.66,0.05-0.78,0.06-0.78,1.06c0,1.79,0,2.32,0.35,3.03c0.37,0.74,0.38,1.82,0.04,3.2c-0.19,0.78-0.63,1.35-1.16,1.54
		c-0.29,0.1-0.74,0.14-1.26-0.24c-0.87-0.65-1.19-0.78-1.46-0.59c-0.62,0.41-1.25-0.02-1.72-0.33c-0.28-0.19-0.59-0.4-0.8-0.4
		c-0.23,0.23-0.3,0.97-0.12,1.85C106,17.83,105.27,18.41,104.44,18.82z M177.23,44.21c-0.12,0.22-0.24,0.38-0.33,0.51
		c-0.15,0.2-0.19,0.27-0.19,0.4c0,0.42-0.32,1.84-0.53,2.31c-0.07,0.16-0.2,0.26-0.38,0.28c-0.64,0.1-1.92-1.08-2.34-1.58
		c-0.03-0.04-0.06-0.07-0.08-0.08c-0.08,0.11-0.17,0.37-0.23,0.54c-0.09,0.24-0.18,0.49-0.3,0.69c-0.39,0.66-1.48,0.75-2.14,0.81
		c-0.11,0.01-0.21,0.02-0.27,0.03c-0.21,0.03-0.24,0.08-0.46,0.48l-0.13,0.24c-0.08,0.15-0.19,0.25-0.33,0.32
		c0.14,0.15,0.29,0.31,0.39,0.44c0.3,0.37,0.43,0.67,0.49,1.13c0.05,0.37,0.06,0.41,0.57,0.69c0.74,0.4,1.22,1.18,1.14,1.84
		c-0.05,0.36-0.84,3.06-1.87,3.14c-0.3,0.03-0.53,0-0.73-0.01c-0.32-0.03-0.53-0.05-0.87,0.11l-0.32,0.14
		c-0.36,0.16-1.21,0.52-1.21,0.74c0,0.11-0.01,0.27-0.03,0.45c-0.02,0.29-0.08,1.08,0.04,1.22c0.07,0,0.18,0.02,0.3,0.04
		c0.39,0.08,0.75,0.15,1.18-0.09c0.17-0.09,0.3-0.2,0.42-0.29c0.33-0.26,0.71-0.55,1.38-0.06c0.49,0.35,0.75,0.33,1.32,0.27
		l0.31-0.03c0.79-0.06,2.66-0.12,2.94,0.63c0.15,0.41,0.54,2.01,0.31,2.71c-0.05,0.15-0.11,0.34-0.19,0.54
		c-0.18,0.53-0.43,1.25-0.47,1.49c-0.03,0.17-0.08,0.66-0.12,1.12c0.58-0.42,1.7-0.26,3.01-0.02l0.37,0.07
		c0.24,0.05,0.45-0.52,0.6-0.89c0.06-0.16,0.12-0.3,0.18-0.42c0.37-0.74,1.52-1.15,3.01-0.5c0.57,0.26,0.88,0.21,1.34,0.14
		c0.34-0.05,0.73-0.11,1.26-0.05c0.3,0.04,0.37,0.02,0.52-0.65c0.07-0.3,0.14-0.61,0.33-0.86c0.1-0.14,0.19-0.29,0.26-0.43
		c0.18-0.32,0.36-0.64,0.72-0.73c0.14-0.03,0.36-0.04,0.61,0.12c0.25,0.12,1.68,0.05,2.21-0.27c0.74-0.44,1.25-0.09,1.66,0.19
		c0.15,0.1,0.31,0.21,0.52,0.32c0.5,0.25,1.05,0.17,1.74-0.24l1.14-0.57l0.26,0.25c0.33,0.32,0.8,0.61,0.94,0.6
		c0.69-0.53,1.33-0.94,1.85-0.64c0.21,0.12,0.44,0.39,0.36,0.99c-0.04,0.3-0.13,0.69-0.22,1.09c-0.1,0.42-0.27,1.16-0.25,1.49
		c0.21-0.01,0.47-0.03,0.75-0.05c1.19-0.09,2.01-0.13,2.46,0.1c0.71,0.36,1.19,1.47,1.19,2.28c0,0.16-0.01,0.32-0.03,0.5
		c-0.04,0.46-0.05,0.81,0.1,0.87c0.31,0.12,1.38,0.51,2.29,0.25l0.18-0.05c0.88-0.25,1.72-0.5,2.6-0.2
		c0.24,0.08,0.95,0.32,1.04,0.93c0.09,0.63-0.56,1.1-0.78,1.26c-0.76,0.54-0.91,1.38-0.73,1.92c0.14,0.42,0.51,1.14,0.81,1.72
		c0.24,0.46,0.39,0.75,0.46,0.94c0.26,0.14,1.18,0.24,1.68,0.14c0.04-0.01,3.77-0.56,4.11,0.46c0.03,0.08,0.05,0.18,0.08,0.28
		c0.1,0.43,0.19,0.7,0.63,0.83c1.14,0.32,2.76,1.26,2.58,2.51c-0.08,0.57-0.05,1.16-0.02,1.73c0.01,0.28,0.03,0.56,0.03,0.82
		c0,0.54,0.62,1.02,0.84,1.1c0.03,0.01,2.68,1.13,2.93,1.89c0.03,0.08,0.16,0.29,0.26,0.46c0.3,0.49,0.68,1.09,0.68,1.67
		c0,0.67,0.14,1.53,0.37,2.2c0.04,0.12,0.1,0.27,0.16,0.44c0.47,1.29,0.78,2.24,0.41,2.77c-0.26,0.37-0.8,0.33-1.27,0.29
		c-0.56-0.05-1-0.08-1.45,0.21c-0.83,0.55-2.2,1.24-3.36,1.39c-0.47,0.06-0.96,0.28-1.43,0.49c-0.51,0.23-0.96,0.43-1.38,0.43
		c-0.25,0-0.43,0-0.7,0.95c-0.11,0.39-0.33,0.74-0.53,1.05c-0.05,0.09-0.12,0.2-0.18,0.29c0.79,0.1,2.25,0.36,2.43,2.13l0.05,0.49
		c0.12,1.14,0.21,2.12,0.21,2.83c0,0.19,0.03,0.48,0.07,0.81c0.17,1.47,0.26,2.73-0.35,3.33c-0.61,0.61-1.49,1.99-1.5,2.01
		l-0.11,0.17l-0.19,0.05c-0.01,0-0.87,0.23-1.28,0.84c-0.67,1.01-1.7,1.45-2.56,1.1c-0.14-0.06-0.61-0.07-0.98-0.08
		c-1.14-0.03-2.44-0.07-2.83-0.97c-0.35-0.81-0.69-1.15-1.67-1.89c-0.61-0.46-2.24-1.69-2.81-1.5c-0.84,0.28-1.56,0.27-2.58-0.03
		c-0.28,0.59-0.45,1.17-0.38,1.31l0.22,0.3c0.73,0.98,1.06,1.47,1.06,1.77c0,0.04,0.02,0.12,0.03,0.19
		c0.05,0.25,0.13,0.59-0.08,0.85c-0.13,0.17-0.35,0.25-0.63,0.25c-0.61,0-1.37,0.04-2.04,0.12c-0.25,0.03-0.5,0.17-0.63,0.28
		c1.25,0.96,1.25,1.31,1.26,1.44c0,0.14-0.06,0.26-0.16,0.35c-0.52,0.41-0.83,0.86-0.8,1.13c0.02,0.15,0.06,0.3,0.1,0.45
		c0.11,0.43,0.25,0.96-0.1,1.42c-0.34,0.46-1.23,2.48-1.29,2.85c-0.06,0.44-0.14,0.96-1.01,0.88l-0.11-0.01
		c-0.31-0.03-1.14-0.12-1.29,0.01c-0.01,0.07-0.03,0.22-0.06,0.4c-0.09,0.6-0.18,1.27-0.65,1.47c-0.21,0.09-0.55,0.34-0.86,0.56
		c-0.27,0.2-0.53,0.38-0.72,0.48c-0.13,0.07-0.35,0.13-0.62,0.22c-0.28,0.09-0.83,0.25-1.02,0.38c0.08,0.14,0.34,0.42,0.94,0.82
		c0.33,0.22,1.16,1.09,1.2,1.68c0.01,0.19-0.06,0.36-0.19,0.47c-0.39,0.32-0.85,0.88-0.94,1.24c-0.17,0.68-0.7,1.09-1.4,1.09
		c-0.11,0-0.24-0.01-0.36-0.01c-0.13-0.01-0.31-0.02-0.44-0.01c0.01,0.01,0.01,0.02,0.02,0.03c0.44,0.69,0.94,1.48,0.45,1.98
		c-0.23,0.23-0.38,0.43-0.22,1.05c0.16,0.64,1.44,1.88,1.84,1.97l0.1,0.02c0.62,0.14,1.77,0.39,1.61,1.32
		c-0.14,0.8-0.57,2.15-1.74,2.48c0.53,0.38,1.18,0.85,1.37,0.99c0.33,0.25,0.65,0.25,0.95,0.01c0.12-0.1,0.23-0.21,0.32-0.31
		c0.28-0.3,0.62-0.67,1.25-0.4c0.1,0.04,0.24,0.11,0.39,0.18c0.33,0.15,1.15,0.53,1.51,0.6c0.01-0.57,0.06-1.11,0.39-1.4
		c0.15-0.13,0.34-0.19,0.55-0.16c0.71,0.1,1.52,0.59,1.88,1.14c0.27,0.4,0.38,0.41,0.73,0.29c0.1-0.03,0.21-0.08,0.33-0.14
		c0.43-0.19,0.91-0.4,1.27-0.19c0.12,0.07,0.27,0.21,0.31,0.5c0.02,0.17,0.03,0.36,0.03,0.54c0,0.11,0.01,0.26,0.02,0.38
		c0.31-0.21,0.55-0.22,0.71-0.22c0.15-0.01,0.19-0.01,0.33-0.24c0.14-0.22,0.26-0.53,0.38-0.83c0.22-0.55,0.39-0.98,0.7-1.12
		c0.12-0.05,0.26-0.06,0.38,0c0.36,0.15,1.7,1.05,1.7,1.71c0,0.24,0.28,0.52,0.52,0.52c0.07,0,0.14-0.01,0.21-0.03
		c0.51-0.09,0.87,0.01,1.09,0.84c0.22,0.79,0.5,0.74,0.72,0.69c0.24-0.05,0.24-0.05,0.57-0.44l0.26-0.3c0.3-0.35,0.73-0.68,1.15-1
		c0.38-0.29,0.77-0.59,0.91-0.81c0.09-0.14-0.02-0.36-0.19-0.69c-0.14-0.26-0.28-0.53-0.28-0.8v-1.58c0-0.4-0.2-0.83-0.54-1.43
		c-0.23-0.41-0.24-0.79-0.03-1.07c0.13-0.17,0.47-0.43,1.22-0.22c0.37,0.1,0.86,0.23,1.36,0.35c0.78,0.2,1.51,0.38,1.82,0.49
		l0.22,0.07c0.54,0.16,1.35,0.41,1.24,1.11c-0.04,0.21-0.15,0.39-0.25,0.54c-0.03,0.05-0.08,0.13-0.1,0.18c0,0,0,0,0,0
		c0.03,0,0.13,0.05,0.36,0.09c0.97,0.21,1.58,0.88,1.6,1.41c0.02,0.29-0.14,0.52-0.41,0.61c-0.14,0.05-0.3,0.07-0.47,0.09
		c-0.23,0.03-0.48,0.07-0.55,0.17c-0.05,0.07-0.04,0.2-0.02,0.3c0.17,0.95,0.19,1.25-0.42,1.86c-0.14,0.14-0.29,0.25-0.42,0.35
		c-0.34,0.26-0.46,0.34-0.33,0.75c0.23,0.76,0.98,1.69,1.53,1.69c0.11,0,0.25,0.01,0.4,0.01c0.83,0.03,2.08,0.08,2.69-0.65l0.1-0.12
		c0.58-0.69,0.7-0.84,1.25-0.67c0.09,0.03,0.21,0.06,0.37,0.1c0.38,0.08,0.7,0.12,1.01,0.15c0.37,0.05,0.71,0.09,1.09,0.18
		c0.75,0.19,0.93,0.6,1.21,1.23l0.09,0.2c0.38,0.84,1.39,2.15,1.97,2.15c0.16,0,0.34,0.01,0.54,0.01c0.47,0.02,1.58,0.05,1.75-0.12
		c0.05-0.38,0.58-1.92,1.12-2.29c0.16-0.11,0.31-0.11,0.4-0.1l0.15,0.03c0.37,0.08,0.72,0.16,1.14-0.08c0.18-0.1,0.34-0.25,0.51-0.4
		c0.35-0.32,0.75-0.68,1.43-0.8l0.33-0.06c0.68-0.14,1.17-0.23,1.65,0.44c0.43,0.6,1.05,1.13,1.47,0.97c0.41-0.15,2.8-0.6,3.14,0.07
		c0.14,0.22,1.26,0.69,1.52,0.6c0.44-0.18,1.03-0.32,1.36-0.02c0.14,0.12,0.27,0.37,0.14,0.81c-0.1,0.32-0.23,0.54-0.34,0.71
		c-0.19,0.31-0.26,0.43-0.02,0.88c0.45,0.82,0.71,0.94,0.8,0.95c0.02,0,0.09,0.01,0.21-0.1c0.13-0.13,0.24-0.33,0.35-0.54
		c0.25-0.47,0.57-1.05,1.37-1.05c0.22,0,0.5,0.03,0.81,0.06c0.65,0.06,1.63,0.15,1.91-0.09c0.03-0.03,0.06-0.06,0.06-0.15
		c0-0.2-0.01-0.41-0.01-0.61c-0.03-0.86-0.06-1.67,0.61-1.79c0.44-0.07,1.6,0.27,2.24,0.49c0.06-0.2,0.13-0.4,0.19-0.54
		c0.19-0.49,1.33-1.72,1.84-1.92c0.04-0.05,0.09-0.41-0.26-1.35c-0.12-0.32-0.04-0.52,0.06-0.63c0.26-0.33,0.82-0.25,1.41-0.16
		l0.28,0.04c0.33,0.04,0.54-0.19,0.88-0.6c0.11-0.13,0.23-0.27,0.36-0.4c-0.08-0.22-1.28-0.92-2.14-1.24
		c-0.13-0.05-0.13-0.05-0.3,0.2c-0.15,0.23-0.35,0.53-0.77,0.64c-0.89,0.22-1.37-0.91-1.65-1.58l-0.04-0.1
		c-0.23-0.53-0.21-1.21-0.2-1.81c0-0.14,0.01-0.27,0.01-0.4c0-0.87,0.28-1.57,0.84-2.14c0.13-0.13,0.15-0.19,0.15-0.19
		c-0.04-0.05-0.36-0.19-0.6-0.29l-0.21-0.09c-0.28-0.13-0.44-0.3-0.48-0.52c-0.06-0.39,0.29-0.71,0.67-1.04
		c0.1-0.09,0.21-0.18,0.3-0.28c0.44-0.44,1.22-0.54,1.9-0.64c0.24-0.03,0.47-0.07,0.67-0.11c0.27-0.06,0.52,0,0.74,0.18
		c0.52,0.42,0.72,1.43,0.72,1.96c0,0.58,0.38,1.11,0.98,1.38c0.08,0.04,0.14,0.05,0.18,0.07c-0.02-0.08-0.06-0.2-0.16-0.38
		c-0.39-0.69-0.23-2.35,0.47-3.04c0.52-0.52,0.23-0.91,0.08-1.06c-0.37-0.37-0.04-0.88,0.25-1.34c0.13-0.2,0.32-0.51,0.32-0.64
		c0-0.2,0.06-0.4,0.12-0.61c0.11-0.4,0.23-0.82,0-1.35c-0.14-0.3-0.15-0.61-0.03-0.9c0.19-0.48,0.68-0.77,0.92-0.88
		c0.15-0.34,0.63-1.4,0.76-2c0.04-0.19,0.06-0.3,0.06-0.36c-0.08-0.01-0.22-0.01-0.34-0.01c-0.41,0-0.67,0.2-1.08,0.54
		c-0.12,0.1-0.25,0.2-0.4,0.31c-0.32,0.24-0.6,0.3-0.84,0.17c-0.34-0.17-0.49-0.62-0.49-1.5c0-0.22-0.05-0.28-0.07-0.3
		c-0.07-0.06-0.31-0.03-0.46-0.01c-0.12,0.02-0.23,0.03-0.32,0.03c-0.47,0-1.44,0-1.78-0.67c-0.14-0.28-0.77-0.24-1.3-0.09
		c-0.3,0.09-0.54,0.06-0.72-0.08c-0.32-0.24-0.34-0.71-0.34-1.22c0-0.52-0.07-0.63-0.29-0.93c-0.05-0.07-0.1-0.14-0.16-0.23
		c-0.38-0.57-0.4-1.26-0.3-2.2c0.03-0.33-0.31-0.47-1.08-0.68c-0.2-0.05-0.39-0.1-0.55-0.16c-0.75-0.28-0.5-1.01-0.35-1.44
		c0.06-0.19,0.13-0.38,0.15-0.55c0.04-0.3,0.17-0.77,0.32-1.31c0.19-0.67,0.42-1.5,0.42-1.9c0-0.41-1.3-0.77-1.94-0.77
		c-0.05,0-0.17,0.08-0.3,0.29c-0.23,0.4-0.32,1-0.18,1.24c0.35,0.62,0.65,1.28,0.45,1.99c-0.23,0.81-1.29,0.66-1.92,0.57l-0.09-0.01
		c-0.32-0.04-0.53,0.07-0.86,0.25c-0.14,0.08-0.3,0.16-0.47,0.23c-0.73,0.32-1.21,0.17-1.71-0.52c-0.09-0.13-0.14-0.15-0.14-0.15
		c0.01,0.03-0.13,0.23-0.25,0.4l-0.19,0.26c-0.54,0.72-1.68,0.92-2.59,1.09l-0.19,0.03c-0.48,0.09-0.85,0.13-1.1-0.08
		c-0.25-0.21-0.27-0.56-0.27-1.06c0-0.49-1.02-0.66-1.69-0.77c-0.18-0.03-0.35-0.06-0.48-0.09c-0.67-0.15-1.35,0.08-2.08,0.33
		c-1.03,0.34-1.68-0.46-1.93-0.77c-0.34-0.42-0.43-1.23-0.32-2.64c0.03-0.39-0.03-0.41-0.6-0.46c-0.23-0.02-0.49-0.05-0.76-0.13
		c-0.11-0.03-0.44-0.13-0.5-0.44c-0.06-0.33,0.23-0.56,0.52-0.79c0.09-0.07,0.25-0.2,0.28-0.25c0.05-0.23-0.1-1.31-0.31-1.66
		c-0.32-0.53-0.06-1.05,0.12-1.39l0.04-0.08c0.16-0.32,0.3-0.6,0.3-1.19c0-0.37,0.14-0.78,0.28-1.21c0.15-0.44,0.3-0.9,0.3-1.29
		c0-0.33-0.18-0.76-0.33-1.14c-0.22-0.54-0.42-1-0.2-1.35c0.29-0.49,0.35-0.52,1.28-1.03c0.02-0.01,0.04-0.03,0.06-0.04
		c-0.22-0.17-0.92-0.38-1.24-0.38c-0.24,0-0.47-0.11-0.66-0.33c-0.31-0.35-0.47-0.95-0.4-1.44l0.02-0.13
		c0.08-0.53,0.22-1.51,0.15-1.85c-0.1-0.5,0.08-1.97,0.27-2.43c0.26-0.64,1.2-0.61,2.15-0.53c0.43,0.04,0.95-0.35,1.41-0.68
		c0.38-0.28,0.7-0.52,1.02-0.56c0.22-0.03,0.25-0.09,0.36-0.33c0.06-0.13,0.14-0.3,0.28-0.47c0.46-0.58,2.58-0.78,2.99-0.78
		c0.6,0,1.58-0.23,1.7-0.41l-0.01-0.23c0.01-0.58,0.04-1.93-0.15-2.44c-0.24-0.64-0.4-1.88-0.13-2.28c0.32-0.48,1.65-0.36,2.22-0.11
		l0.37,0.16c0.86,0.38,2.89,1.27,3.56,1.4c0.5,0.1,0.5,0.08,0.6-0.19l0.05-0.12c0.03-0.28-0.81-1.4-1.13-1.82l-0.16-0.21
		c-0.7-0.93-0.06-1.57,0.36-1.99c0.12-0.12,0.1-0.2,0.09-0.24c-0.05-0.19-0.33-0.41-0.62-0.49c-0.89-0.26-0.7-0.93-0.55-1.47
		c0.02-0.06,0.02-0.12,0.01-0.13c-0.09-0.13-0.68-0.19-0.99-0.22c-0.23-0.02-0.51-0.08-0.65-0.31c-0.15-0.25-0.03-0.51,0.08-0.78
		c0.08-0.18,0.16-0.38,0.21-0.61c0.08-0.38,0.04-0.39-0.35-0.58c-0.15-0.07-0.32-0.15-0.51-0.27c-0.26-0.16-0.41-0.36-0.43-0.59
		c-0.04-0.39,0.28-0.68,0.59-0.96c0.07-0.06,0.14-0.13,0.2-0.19c0.1-0.1,0.14-0.22,0.11-0.36c-0.03-0.19-0.18-0.38-0.37-0.48
		c-0.58-0.29-0.55-0.92-0.52-1.47c0.01-0.13,0.01-0.26,0.01-0.39c0-0.15,0-0.44-0.85-0.44c-0.65,0-1.4-0.61-1.4-1.15
		c0-0.36,0.17-1.24,0.7-1.66c0.06-0.16-0.33-0.75-0.46-0.95c-0.09-0.14-0.16-0.25-0.2-0.33c-0.04-0.07-0.07-0.15-0.11-0.24
		c-0.14-0.32-0.29-0.67-0.62-0.89c-0.34-0.22-0.46-0.77-0.49-1.28c-0.28,0.44-0.58,0.91-0.94,1.31c-0.61,0.7-1.44,1.31-1.98,1.72
		c-0.24,0.18-0.45,0.33-0.53,0.42c-0.21,0.21-0.58,0.29-0.97,0.39c-0.23,0.05-0.67,0.16-0.74,0.25c-0.12,0.18-0.34,0.3-0.66,0.36
		c-0.14,0.03-0.3,0.04-0.47,0.04c-0.48,0-1.01-0.1-1.31-0.32c-0.43-0.31-0.99-0.68-1.48-0.99c-0.62-0.39-0.74-1.15-0.57-1.73
		c0.02-0.12-0.24-0.54-0.37-0.74c-0.21-0.33-0.39-0.61-0.39-0.86c0-0.1-0.03-0.26-0.06-0.44c-0.08-0.5-0.19-1.12,0.03-1.52
		c-0.04-0.02-0.1-0.05-0.14-0.07c-0.14-0.06-0.3-0.13-0.43-0.26c-0.3-0.3-0.44-0.91-0.46-1.03L225.3,56l0.15-0.12
		c0.08-0.07,8.25-6.56,8.8-7.05c0.41-0.36,0.4-1.04,0.4-1.41l0-0.11c0-0.16-0.1-0.64-0.2-1.07c-0.1-0.47-0.21-0.96-0.24-1.28
		c-0.07-0.69,0.29-1.23,0.56-1.62l0.06-0.08c0.11-0.16-0.05-0.39-0.48-0.87c-0.41-0.47-1.25-0.84-1.7-1.05
		c-0.74-0.33-0.95-1.45-0.8-2.1c0.09-0.39,0.07-0.53-0.78-1.33c-0.28-0.26-0.38-0.27-0.39-0.27c-0.01,0.01-0.07,0.09-0.11,0.15
		c-0.11,0.14-0.24,0.31-0.46,0.42c-0.54,0.27-1.28-0.05-1.88-0.3c-0.11-0.05-0.21-0.09-0.3-0.12c-0.23-0.09-0.31-0.25-0.33-0.34
		c-0.08-0.32,0.18-0.62,0.46-0.95c0.13-0.15,0.28-0.33,0.32-0.43c-0.03-0.13-0.41-0.32-1.13-0.58l-0.4-0.15
		c-0.8-0.3-2.46-0.91-2.9-0.96c-0.42-0.05-1.58-0.23-2.17-0.32c-0.04,0.29-0.13,0.6-0.27,0.85c-0.28,0.49-0.84,0.93-1.11,1.02
		l-0.09,0.03c-0.25,0.07-0.45,0.15-0.51,0.49c-0.02,0.13-0.04,0.26-0.06,0.4c-0.06,0.47-0.11,0.92-0.45,1.1
		c-0.12,0.07-0.33,0.12-0.62-0.03c-0.21-0.11-0.44-0.27-0.68-0.45c-0.25-0.18-0.77-0.56-0.92-0.52c-0.3,0.4-0.3,0.97-0.15,1.32
		c0.04,0.1,0.17,0.26,0.3,0.42c0.3,0.37,0.6,0.76,0.55,1.15c-0.02,0.17-0.11,0.32-0.26,0.43c-0.21,0.16-0.6,0.65-0.98,1.13
		c-0.45,0.56-0.91,1.15-1.26,1.43c-0.24,0.19-0.54,0.65-0.81,1.05c-0.5,0.75-0.82,1.21-1.22,1.26l-0.24,0.03
		c-0.33,0.03-0.75,0.08-0.83,0.24c-0.19,0.39-0.74,1.24-0.77,1.28c-0.15,0.27,0.05,0.73,0.47,1.01c0.63,0.42,1,0.72,0.69,1.73
		c-0.27,0.89-0.63,1.24-0.89,1.5l-0.06,0.06c-0.07,0.07-0.19,0.18-0.21,0.24c0.01,0,0.02,0.02,0.06,0.05
		c0.46,0.39,0.5,0.94,0.11,1.43c-0.37,0.47-1.9,0.68-2.31,0.68c-0.29,0-0.46,0.19-0.66,0.46c-0.11,0.15-0.82,1.06-1.79,1.23
		c-0.06,0.01-0.11,0.01-0.17,0.01c-0.32,0-0.66-0.15-0.99-0.43c-0.47-0.4-0.83-1-0.83-1.4c0-0.27-0.5-0.5-0.75-0.5
		c-0.62,0-0.97-0.9-1-1.43c-0.24-0.11-1.09-0.09-1.38-0.08c-0.12,0-0.23,0.01-0.31,0.01c-0.66,0-0.83-0.38-1.04-0.86l-0.06-0.14
		c-0.1-0.12-0.63-0.27-2.57-0.2c-0.17,0.01-0.3,0.01-0.39,0.01c-0.3,0-0.58-0.14-0.8-0.4c-0.26-0.3-0.41-0.71-0.39-1.06
		c-0.3-0.25-1.82-0.66-2.33-0.79c-0.21-0.06-0.39-0.1-0.5-0.14c-0.74-0.22-1.12-0.55-1.27-1.09c-0.03-0.12-0.21-0.34-0.37-0.54
		c-0.3-0.37-0.64-0.8-0.64-1.24c0-0.41,0.23-0.64,0.42-0.83c0.16-0.16,0.29-0.29,0.34-0.54c0.01-0.04,0.01-0.05-0.04-0.08
		c-0.24-0.16-0.87-0.1-1-0.01l-0.08,0.08c-0.24,0.25-0.54,0.55-1.02,0.62c-0.14,0.02-0.37,0-0.6-0.23
		c-0.36-0.35-0.62-1.08-0.56-1.55c0.03-0.22,0.09-0.58,0.15-0.93c0.05-0.27,0.11-0.62,0.14-0.84c-0.46-0.05-1.63,0.09-1.82,0.28
		c-0.21,0.21-0.55,0.31-0.97,0.3c-0.49-0.01-1.17-0.2-1.61-0.69c-0.11-0.13-0.18-0.17-0.2-0.19c0.01,0.02-0.03,0.06-0.06,0.1
		c-0.09,0.1-0.22,0.23-0.4,0.34c-0.36,0.23-0.64,0.69-0.92,1.19l-0.16,0.27c-0.35,0.58-0.79,0.51-0.92,0.48
		c-0.32-0.09-0.54-0.4-0.54-0.77c0-0.15-0.13-0.45-0.25-0.72c-0.16-0.36-0.34-0.76-0.37-1.13c-0.05-0.48-1.39-2.61-1.8-3.08
		c-0.31,0.03-1.27,0.56-1.74,0.82c-0.43,0.24-0.7,0.38-0.87,0.45c-0.11,0.26-0.01,1.2,0.29,2.79c0.14,0.75,0.34,0.96,0.58,1.24
		c0.05,0.06,0.11,0.12,0.16,0.18C177.51,42.89,177.57,43.6,177.23,44.21z M183.39,107.81c0.21-0.36,0.57-0.6,1-0.68
		c0.66-0.13,1.47,0.11,2.21,0.67c0.55,0.41,1.1,0.3,1.74,0.16c0.31-0.07,0.64-0.13,0.97-0.13c0.44,0,0.92-0.35,1.38-0.69
		c0.28-0.21,0.57-0.42,0.88-0.57c0.87-0.43,2.2-0.96,3.1-1.21c1.06-0.3,1.68-0.27,2.91,0.14c1.14,0.38,1.67,0.34,2.3,0.13
		c0.98-0.33,2.33,0.59,3.73,1.64c1.11,0.84,1.56,1.28,1.99,2.3c0.13,0.31,1.35,0.35,1.94,0.36c0.57,0.02,1.02,0.03,1.32,0.15
		c0.4,0.16,0.97-0.14,1.36-0.73c0.48-0.72,1.29-1.06,1.67-1.19c0.26-0.4,0.98-1.46,1.54-2.02c0.31-0.31,0.14-1.86,0.06-2.51
		c-0.04-0.38-0.08-0.71-0.08-0.93c0-0.66-0.1-1.62-0.21-2.73l-0.05-0.49c-0.09-0.9-0.61-1.12-1.66-1.25
		c-0.4-0.05-0.67-0.21-0.79-0.48c-0.21-0.44,0.07-0.87,0.35-1.33c0.16-0.25,0.34-0.54,0.41-0.79c0.23-0.81,0.57-1.67,1.66-1.67
		c0.21,0,0.6-0.17,0.97-0.34c0.51-0.23,1.1-0.49,1.71-0.57c0.92-0.12,2.13-0.7,2.93-1.23c0.73-0.49,1.45-0.43,2.09-0.38
		c0.12,0.01,0.24,0.02,0.36,0.03c-0.03-0.42-0.37-1.36-0.51-1.75c-0.07-0.18-0.12-0.34-0.17-0.47c-0.26-0.77-0.42-1.74-0.42-2.51
		c0-0.29-0.32-0.8-0.53-1.14c-0.17-0.27-0.3-0.48-0.36-0.67c-0.19-0.22-1.89-1.12-2.3-1.25c-0.51-0.17-1.52-0.97-1.52-2.04
		c0-0.24-0.01-0.5-0.03-0.77c-0.03-0.59-0.06-1.25,0.03-1.92c0.07-0.48-0.95-1.15-1.87-1.41c-1.04-0.3-1.23-1.12-1.33-1.57
		c0-0.01-0.01-0.03-0.01-0.04c-0.55-0.13-2.39-0.08-3,0.05c-0.49,0.1-2.5,0.17-2.8-0.72c-0.04-0.13-0.25-0.53-0.43-0.88
		c-0.33-0.64-0.71-1.37-0.87-1.87c-0.36-1.08,0.09-2.33,1.1-3.05c0.18-0.13,0.28-0.23,0.33-0.29c-0.06-0.04-0.16-0.09-0.33-0.14
		c-0.58-0.2-1.21-0.01-2.01,0.22l-0.18,0.05c-1.18,0.34-2.45-0.08-2.94-0.28c-0.85-0.34-0.78-1.27-0.73-1.88
		c0.01-0.14,0.02-0.29,0.02-0.42c0-0.52-0.33-1.23-0.64-1.38c-0.25-0.12-1.39-0.04-1.95,0c-0.77,0.05-1.3,0.13-1.6-0.24
		c-0.36-0.46-0.22-1.22,0.06-2.42c0.07-0.29,0.14-0.58,0.18-0.82c-0.23,0.13-0.5,0.34-0.62,0.43c-0.65,0.48-1.5-0.08-1.95-0.45
		l-0.48,0.24c-0.95,0.57-1.86,0.67-2.67,0.26c-0.25-0.13-0.46-0.26-0.63-0.38c-0.4-0.27-0.41-0.26-0.59-0.16
		c-0.68,0.41-2.34,0.62-3.09,0.34c-0.03,0.05-0.07,0.12-0.09,0.17c-0.1,0.17-0.2,0.36-0.34,0.54c-0.06,0.08-0.11,0.3-0.16,0.49
		c-0.13,0.54-0.36,1.55-1.61,1.41c-0.4-0.04-0.7,0-1,0.04c-0.52,0.08-1.05,0.16-1.89-0.22c-0.98-0.43-1.59-0.2-1.71,0.03
		c-0.05,0.09-0.09,0.21-0.14,0.34c-0.25,0.62-0.67,1.67-1.69,1.5l-0.39-0.07c-0.48-0.09-1.95-0.36-2.24-0.15
		c-1.28,0.96-2.23,1.23-2.82,0.78c-0.56-0.42-1.61-1.21-2.45-1.21c-0.34,0-0.66-0.03-0.96-0.05c-0.39-0.03-0.94-0.07-1.04,0.03
		c-0.13,0.13-0.33,0.26-0.56,0.4c-0.29,0.19-0.84,0.54-0.88,0.77c0,0.02-0.01,0.05,0.05,0.14c0.62,0.87,0.86,1.54,0.73,2.06
		c-0.07,0.29-0.25,0.51-0.52,0.65c-0.25,0.12-0.25,0.97-0.25,1.25c0,0.08,0.03,0.21,0.05,0.33c0.07,0.36,0.18,0.86-0.13,1.24
		c-0.45,0.55-1.58,0.36-2.9,0.24c-0.74-0.07-1.51-0.13-2.1-0.13l-0.35,0c-0.98,0.01-2.07,0.02-2.24-1.36
		c-0.05-0.42,0.01-0.76,0.07-1.03c0.09-0.45,0.09-0.46-0.41-0.66c-0.5-0.2-1.33-0.53-1.57-0.42c-0.06,0.03-0.11,0.17-0.12,0.22
		c-0.04,0.13-0.08,0.29-0.12,0.45c-0.21,0.88-0.46,1.88-1.17,2.13c-0.24,0.08-0.61,0.11-1.07-0.23c-1.03-0.77-1.82-1.31-2.51-1.21
		c-0.65,0.09-1.41,0.42-2.02,0.68c-0.18,0.08-0.34,0.15-0.49,0.2c-0.67,0.27-1.62,0.43-2.54,0.43c-0.4,0-1,0-1.13,0.1
		c-0.07,0.26-0.39,0.46-0.98,0.81c-0.08,0.05-0.18,0.11-0.28,0.17c0.21,0.04,0.43,0.08,0.66,0.12c2.67,0.46,3.68,0.71,3.68,1.45
		c0,0.4,0.09,1.24,0.26,2.42c0.05,0.38,0.72,0.93,1.16,1.29c0.41,0.34,0.74,0.62,0.89,0.91c0.05,0.1,0.35,0.41,0.55,0.61
		c0.68,0.69,1.26,1.28,1.06,1.85c-0.05,0.16-0.22,0.43-0.69,0.49c-0.26,0.03-0.59,0.05-0.94,0.07c-0.79,0.04-2.11,0.11-2.37,0.5
		c-0.16,0.23-0.29,0.52-0.43,0.8c-0.32,0.67-0.65,1.37-1.33,1.5c-0.14,0.03-0.37,0.25-0.41,0.5c-0.01,0.11,0,0.26,0.27,0.39
		c0.19,0.1,0.41,0.19,0.62,0.28c0.79,0.34,1.61,0.69,1.89,1.38c0.13,0.34,0.12,0.7-0.05,1.08c-0.5,1.12-0.57,1.73-0.27,2.32
		c0.45,0.91,1.82,2.74,2.22,2.9c0.27,0.11,0.61,0.3,1,0.53c0.48,0.28,1.28,0.74,1.56,0.74c0.59,0,1.63,0.31,2.08,1
		c0.19,0.29,0.36,0.77,0.08,1.4c-0.16,0.35-0.24,0.9-0.31,1.39c-0.14,0.9-0.24,1.6-0.8,1.81c-0.31,0.11-0.64,0.02-0.98-0.28
		c-0.2-0.18-0.39-0.35-0.56-0.51c-0.11-0.1-0.23-0.21-0.34-0.31c-0.08,0.74-0.31,1.48-0.58,1.89c-0.04,0.08,0.02,0.19,0.42,0.51
		c0.11,0.09,0.23,0.18,0.36,0.27c0.72,0.54,1.53,1.16,1.53,1.95c0.01,0.01,0.08,0.11,0.32,0.21c0.39,0.17,0.88,0.2,1.09,0.11
		c0.62-0.25,1.81-0.26,2.27,0.28c0.23,0.27,0.25,0.63,0.05,0.97c-0.44,0.74-0.58,1.46-0.42,1.67c0.39,0.52,0.76,2.16,0.27,2.89
		c-0.23,0.35-0.62,0.49-1.06,0.38c-0.75-0.19-1.23,0.58-1.39,0.92c-0.05,0.09-0.11,0.21-0.19,0.33c-0.14,0.24-0.48,0.82-0.41,1.01
		c0.01,0.02,0.05,0.05,0.09,0.06c0.86,0.37,1.17,1.33,1.37,1.97c0.05,0.16,0.12,0.38,0.16,0.44c0.15,0.22,1.15,0.69,1.55,0.69
		c0.22,0,0.43,0.05,0.62,0.09c0.34,0.08,0.61,0.15,0.99-0.04c0.5-0.25,0.76-0.36,1.08-0.36c0.25,0,0.53,0.07,0.98,0.2
		c1.04,0.3,1.37,0.63,2.18,1.44c0.57,0.57,0.83,0.74,0.95,0.78c0-0.03,0.02-0.08,0.04-0.15l0.07-0.28c0.22-0.89,0.39-1.6,1.01-2.94
		c0.11-0.24,0.21-0.47,0.3-0.7c0.37-0.89,0.66-1.58,1.29-1.76c0.35-0.09,0.73,0,1.13,0.3c0.96,0.72,1.22,0.8,2.12,0.69
		c0.64-0.08,2.1-0.64,3.07-1c0.63-0.24,0.99-0.38,1.19-0.42c0.69-0.17,1.5,0.01,2.12,0.48c0.04,0.03,0.1,0.07,0.14,0.1
		c0.11-0.11,0.3-0.33,0.49-0.55c0.25-0.3,0.43-0.56,0.59-0.8c0.32-0.47,0.6-0.89,1.17-1.13c0.33-0.43,1.45-1.65,3.05-1.25
		c0.16,0.04,0.27,0.06,0.34,0.06c0-0.03,0-0.07-0.01-0.09C183.2,108.57,183.17,108.17,183.39,107.81z M167.5,48.78l-0.12-0.06
		c-0.72-0.36-1.32-0.69-1.47-1.12c-0.06-0.04-0.49-0.16-1.33-0.16c-0.14,0.03-0.82,0.45-1.03,0.66c-0.21,0.21-0.59,0.22-0.87,0.19
		c-0.49-0.05-1.18-0.27-1.49-0.74c-0.15-0.22-0.6-0.46-1.07-0.63c-0.2,0.31-0.72,0.99-1.4,0.99c-0.19,0-0.37-0.01-0.53-0.03
		c-0.41-0.03-0.49-0.02-0.56,0.07c-0.06,0.09-0.11,0.21-0.16,0.34c-0.15,0.35-0.32,0.75-0.67,0.84c-0.12,0.03-0.32,0.04-0.53-0.12
		c-0.2-0.15-0.34-0.34-0.45-0.49c-0.02-0.03-0.05-0.06-0.07-0.09c-0.01,0.01-0.02,0.02-0.03,0.03c-0.46,0.6-1.49,1.3-1.76,1.43
		c-0.03,0.02-0.07,0.03-0.11,0.05c0.3,0.31,1.22,1.31,1.13,1.86c-0.01,0.05,0,0.14,0,0.23c0.01,0.29,0.03,0.68-0.25,0.95
		c-0.18,0.18-0.45,0.26-0.81,0.24l-0.27-0.02c-0.77-0.05-1.16-0.08-1.53,0.11c-0.49,0.24-1.12,0.45-1.62,0.52
		c-0.07,0.01-0.21,0.03-0.3,0.06c0.2,0.42,0.45,0.99-0.12,1.36l-0.17,0.11c-0.25,0.16-0.3,0.19-0.3,0.43c0,1.25-0.13,1.9-0.45,2.18
		c-0.13,0.11-0.28,0.16-0.45,0.15c-0.12-0.01-0.17,0-0.23,0.03c-0.34,0.12-0.55,0.04-1.04-0.41c-0.3-0.27-0.49-0.42-0.55-0.43
		c-0.01,0.01-0.1,0.1-0.18,0.18c-0.14,0.13-0.39,0.62-0.59,1.01c-0.37,0.73-0.61,1.18-0.87,1.35c-0.22,0.15-0.29,0.29-0.29,0.9
		c0,0.27,0,1.1,0.15,1.23c0.34-0.01,1.05,0.1,1.41,0.5c0.16,0.18,0.23,0.4,0.21,0.63c-0.01,0.09-0.02,0.18-0.02,0.28
		c-0.04,0.56-0.09,1.33-0.87,1.41c-0.16,0.02-0.33,0.02-0.49,0.02c-0.24,0.01-0.68,0.02-0.71,0.12c-0.04,0.13-0.05,0.3-0.07,0.49
		c-0.05,0.49-0.11,1.04-0.44,1.36c-0.06,0.06-0.13,0.14-0.2,0.22c-0.37,0.41-0.98,1.09-1.57,0.59c-0.27-0.23-0.64-0.27-0.7-0.22
		c0,0.19,0.03,0.35,0.06,0.52c0.09,0.48,0.19,1.08-0.16,1.7c-0.4,0.68-0.57,1.24-0.63,2.01c-0.02,0.2-0.01,0.41,0,0.61
		c0.01,0.5,0.02,0.93-0.24,1.19c-0.09,0.09-0.24,0.2-0.5,0.2c-0.23,0-0.45-0.04-0.64-0.08c-0.39-0.08-0.6-0.11-0.8,0.07
		c-0.12,0.11-0.26,0.28-0.4,0.46c-0.37,0.48-0.83,1.08-1.58,1.08c-0.21,0-0.39,0.01-0.55,0.02c-0.52,0.03-0.93,0.06-1.56-0.31
		c-0.53-0.31-0.78-0.3-0.83-0.27c-0.02,0.01-0.04,0.07-0.04,0.18c0,0.17-0.01,4.13-0.67,4.54c-0.12,0.08-0.27,0.08-0.4,0.02
		c-0.31-0.15-1.13-0.57-1.34-0.32c-0.1,0.12-0.16,0.24-0.22,0.36c-0.12,0.26-0.26,0.55-0.79,0.71c-0.56,0.17-0.89,0.45-0.91,0.55
		c0.05,0.09,0.2,0.29,0.35,0.48c0.48,0.64,0.77,1.06,0.72,1.4c-0.01,0.07-0.01,0.15,0,0.24c0.01,0.32,0.03,0.91-0.71,1.11
		l-0.25,0.07c-0.61,0.18-1.37,0.4-2.33,0.04c-0.72-0.27-1.26-0.13-1.73,0c-0.1,0.03-0.2,0.05-0.3,0.08
		c-0.14,0.03-0.27,0.09-0.4,0.16c-0.3,0.15-0.68,0.34-1.27,0.07c-0.02-0.01-0.03-0.02-0.05-0.03c-0.01,0.11,0,0.24,0.08,0.37
		c0.14,0.22,0.21,0.42,0.27,0.59c0.09,0.26,0.14,0.38,0.29,0.47c0.46,0.26,1.47,1.2,1.75,1.63c0.07,0.1,0.18,0.2,0.31,0.3
		c0.24,0.2,0.54,0.44,0.54,0.85c0,0.34,0.13,0.63,0.2,0.67c0,0,0,0,0,0c0.49,0,1.08,0.85,1.08,1.41c0,0.16-0.04,0.38-0.09,0.63
		c-0.03,0.16-0.08,0.43-0.1,0.61c0.1-0.04,0.23-0.09,0.34-0.14c0.46-0.2,0.92-0.4,1.23-0.1c0.06,0.06,0.13,0.12,0.22,0.2
		c0.46,0.4,0.79,0.71,0.79,1.06c0,0.21,0.24,0.67,0.42,0.67c0.89,0,0.98,0.47,0.98,0.68c0,0.27,0.03,0.37,0.05,0.41
		c0.01-0.01,0.03-0.01,0.06-0.03l0.28-0.13c0.6-0.28,1.28-0.61,1.58-0.11c0.04,0.06,0.1,0.12,0.16,0.2c0.19,0.22,0.44,0.48,0.4,0.82
		c-0.02,0.2-0.14,0.37-0.35,0.5c-0.53,0.35-1.25,1.08-1.6,1.43c-0.27,0.27-0.33,0.38-0.33,0.42c0.42,0.27,0.81,0.53,1.09,0.88
		c0.26,0.32,0.57,0.53,0.68,0.52c0.06-0.02,0.07-0.03,0.07-0.04c-0.04,0-0.02-0.12-0.03-0.24l0-0.29c0-0.51,0-0.95,0.3-1.22
		c0.17-0.16,0.41-0.22,0.72-0.19c0.49,0.04,1.97,0.18,2.45-0.08c0.41-0.23,0.72-0.19,0.91-0.12c0.28,0.1,0.5,0.35,0.64,0.71
		c0.06,0.16,0.24,0.51,0.42,0.84c0.62,1.16,0.75,1.46,0.59,1.71c-0.15,0.22-0.84,0.92-1.3,1.24c-0.36,0.26-0.44,0.37-0.45,0.42
		c0,0,0.01,0.03,0.06,0.08c0.32,0.32,1.14,0.69,1.31,0.7c0,0,0.01,0,0.01,0c0.25,0,0.75,0.01,0.85,0.76
		c0.01,0.07,0.13,0.24,1.06,0.39l0.08,0.01c0.46,0.08,1.56,0.87,1.72,1.58c0.16,0.72,0.13,1.11-0.09,1.32
		c-0.08,0.07-0.24,0.17-0.5,0.09l-0.2-0.07c-0.26-0.09-0.94-0.33-1.11-0.29c-0.17,0.04-0.41,0.18-0.44,0.26
		c0.44,0.35,0.8,1.32,0.74,1.93c-0.03,0.35-0.2,0.52-0.33,0.59l-0.19,0.11c-0.2,0.11-0.74,0.41-0.8,0.55
		c0.04,0.01,0.3,0.17,0.48,0.27c0.4,0.24,0.78,0.46,0.81,0.81c0.01,0.09-0.01,0.27-0.19,0.43c-0.4,0.34-0.57,0.54-0.65,0.65
		c0.64,0.22,2.24,1.19,2.34,1.68c0.06,0.29-0.13,0.55-0.3,0.77c-0.11,0.15-0.23,0.31-0.25,0.44c-0.02,0.16,0.33,0.59,0.48,0.78
		c0.13,0.15,0.23,0.28,0.28,0.38c0.31,0.62,0.21,1.19-0.25,1.45c-0.18,0.1-0.67,0.55-1.09,0.95c-0.49,0.46-0.95,0.89-1.22,1.06
		c-0.13,0.08-0.25,0.18-0.36,0.28c-0.27,0.23-0.54,0.44-0.83,0.36c-0.12-0.03-0.27-0.12-0.37-0.37c-0.05-0.12-0.09-0.31-0.15-0.52
		c-0.27-1.09-0.41-1.19-0.48-1.18l-0.18,0.03c-0.26,0.05-0.86,0.17-0.95,0.29c0.07,0.15,0.16,0.28,0.25,0.42
		c0.16,0.24,0.33,0.51,0.33,0.9c0,0.74-0.24,1.29-0.66,1.5c-0.25,0.12-0.53,0.05-0.78-0.01c-0.38-0.1-0.49-0.09-0.57,0.03
		c-0.1,0.16-0.21,0.33-0.31,0.49c-0.29,0.48-0.55,0.9-0.83,1.07c-0.22,0.13-0.29,0.17-0.34,0.62c-0.02,0.14-0.02,0.31-0.02,0.49
		c-0.01,0.55-0.02,1.18-0.37,1.53l-0.18,0.17c-0.29,0.27-0.56,0.53-0.53,0.79c0.01,0.09,0.04,0.23,0.07,0.4
		c0.19,0.97,0.42,2.17-0.31,2.33c-0.38,0.08-0.63,0.24-1.01,0.53c0.39,0.27,1.02,0.68,1.32,0.84c0.56,0.28,1.27,1.14,1.07,1.72
		c-0.14,0.42-1.12,1.62-1.83,1.9l-0.29,0.11c-0.57,0.22-1.35,0.53-1.74,0.78l-0.35,0.22c-1.46,0.92-2.86,1.8-3.25,1.94
		c-0.08,0.03-0.16,0.06-0.25,0.09c-0.33,0.11-0.82,0.28-0.78,0.47c0.05,0.24,0.24,0.65,0.42,1.03c0.19,0.42,0.4,0.86,0.49,1.21
		c0.18,0.65,0.54,1.54,0.75,1.86c0.06,0.08,0.11,0.19,0.17,0.31c0.28,0.56,0.42,0.67,0.67,0.56c0.74-0.31,1.11-0.46,1.74-0.39
		c0.11,0.01,0.28,0.04,0.47,0.07c1.23,0.2,1.92,0.23,2.07,0.1c0.16-0.19,1.76-1.71,2.39-1.2c0.69,0.56,1.79,1.17,2.03,1.08
		c0.52-0.32,0.92-0.52,1.47-0.59c0.46-0.06,1.67-0.6,1.84-0.77l0.11-0.11c0.59-0.62,0.98-0.94,1.33-0.87
		c0.16,0.03,0.28,0.13,0.35,0.29c0.26,0.61,1.06,2.02,1.34,2.15c0,0,1.41,0.41,1.62,1c0.06,0.16,0.04,0.32-0.05,0.45
		c-0.19,0.29-0.62,0.63-0.97,0.9c-0.05,0.04-0.09,0.07-0.13,0.1c0.01,0.01,0.03,0.02,0.04,0.03c0.21,0.18,0.5,0.42,0.55,0.76
		c0.05,0.37,0.43,1,0.8,1.08c0.16,0.04,0.46,0.06,0.78,0.09c1.03,0.09,1.62,0.16,1.77,0.53c0.2,0.35,2.25,2.08,2.67,2.13
		c0.19,0.02,0.46,0.06,0.75,0.11c0.48,0.08,1.37,0.21,1.56,0.15l0.14-0.05c0.38-0.15,1.09-0.42,1.82,0.24
		c0.64,0.58,1.91,1.43,2.42,1.66c0.37,0.17,0.82,0.45,0.81,0.84c0,0.18-0.1,0.42-0.51,0.59c-0.65,0.26-1.29,0.77-1.33,0.94
		c0,0.36-0.17,1.29-0.72,1.75c-0.35,0.3-0.38,0.51-0.38,0.74c0,0.34,0.13,1.59,0.33,2c0.22,0.44,0.68,0.96,0.89,1.06
		c0.04-0.04,0.09-0.1,0.14-0.16c0.21-0.26,0.56-0.7,1.25-0.58l0.56,0.09c0.68,0.11,1.48,0.24,1.95,0.34
		c0.43,0.09,1.4,0.29,1.94,0.41c0.01-0.33,0.01-0.71,0.01-1.14c0-0.98,0.99-0.98,1.41-0.98c0.78,0,0.97,0.19,1.29,0.58
		c0.05,0.06,0.1,0.13,0.17,0.2c0.3,0.34,0.97-0.09,1.17-0.23c0.17-0.12,0.19-0.5,0.06-1.01c-0.04-0.12-0.45-0.82-0.74-1.32
		c-0.35-0.6-0.68-1.16-0.77-1.38c-0.22-0.5,0.02-1.12,0.63-1.64c0.39-0.34,0.56-0.48,0.56-1.6c0-0.42,0.19-0.62,0.34-0.72
		c0.51-0.31,1.37,0.14,2.13,0.55c0.25,0.14,0.5,0.26,0.62,0.3c0.02,0,0.06-0.03,0.08-0.06c0.23-0.29,0.33-1.09,0.17-1.38
		c-0.19-0.33-0.13-0.58-0.05-0.73c0.16-0.3,0.53-0.47,1.21-0.53c0.14-0.01,0.18-0.04,0.18-0.04c-0.02-0.03-0.12-0.3-0.2-0.51
		l-0.12-0.32c-0.31-0.85-0.38-1.22,0.07-1.67c0.26-0.26,0.46-0.67,0.46-0.94c0-0.3-0.16-0.86-0.41-1.02l-0.1-0.07
		c-0.35-0.23-0.75-0.49-0.89-1.17c-0.08-0.09-0.39-0.04-0.57,0c-0.26,0.04-0.57,0.1-0.86,0.07c-0.15-0.01-0.54-0.04-0.65-0.35
		c-0.11-0.31,0.16-0.58,0.4-0.81l0.11-0.1c0.28-0.28,1.15-0.98,1.64-1.06c0.43-0.07,1.63,0.12,2.15,0.56
		c0.15,0.13,0.54,0.32,0.91,0.5c0.64,0.32,1.1,0.56,1.33,0.81c0.16-0.08,0.47-0.36,0.7-0.56c0.48-0.43,1.03-0.92,1.58-1.11
		c0.31-0.11,0.57-0.09,0.75,0.06c0.34,0.28,0.26,0.83,0.19,1.37c-0.03,0.24-0.07,0.51-0.04,0.62c0.1,0.45-0.12,0.72-0.29,0.94
		c-0.11,0.14-0.21,0.26-0.25,0.44c0.19,0.02,0.65-0.09,0.88-0.14c0.12-0.03,0.23-0.05,0.33-0.07c0.83-0.17,1.12,0.25,1.32,0.65
		c0.03,0.06,0.07,0.08,0.42,0.04c0.13-0.01,0.26-0.03,0.4-0.03c0.31,0,0.7-0.27,1.17-0.81c0.37-0.42,0.96-0.23,1.53-0.04
		c0.4,0.13,0.85,0.29,1.23,0.24c0.61-0.08,0.64-0.12,0.75-0.29c0.05-0.08,0.11-0.17,0.21-0.28c0.23-0.26,0-0.83-0.25-1.12
		c-0.31-0.37-0.26-0.68-0.22-0.94c0.01-0.08,0.03-0.15,0.03-0.24c0-0.37,0-0.71-0.06-1.12c-0.05-0.37,0.18-0.68,0.4-0.98
		c0.14-0.19,0.28-0.38,0.35-0.57c0.2-0.59,1.15-0.83,2.58-1.13l0.03-0.05c0,0,0.03,0.02,0.04,0.03l0.45-0.09
		c0.89-0.2,1.23-1.35,1.35-2.01c0.06-0.34-0.71-0.51-1.12-0.6l-0.1-0.02c-0.65-0.15-2.1-1.57-2.31-2.43c-0.21-0.83,0-1.26,0.39-1.64
		c0.14-0.14-0.35-0.91-0.53-1.2c-0.07-0.1-0.27-0.42-0.1-0.71c0.19-0.32,0.62-0.3,1.08-0.27c0.11,0.01,0.22,0.01,0.33,0.01
		c0.56,0,0.74-0.39,0.8-0.62c0.15-0.62,0.81-1.3,1.14-1.57c-0.01-0.16-0.62-0.93-0.95-1.15c-1.14-0.76-1.21-1.17-1.23-1.31
		c-0.09-0.53,0.67-0.76,1.48-1.01c0.22-0.07,0.42-0.13,0.52-0.18c0.14-0.07,0.39-0.25,0.63-0.42c0.35-0.25,0.71-0.51,0.97-0.62
		c0.14-0.07,0.24-0.74,0.27-0.99c0.03-0.22,0.06-0.42,0.1-0.54c0.19-0.58,1.12-0.49,1.93-0.41l0.11,0.01
		c0.22,0.02,0.27-0.01,0.27-0.01c0.02-0.03,0.04-0.17,0.05-0.27c0.08-0.58,1.03-2.69,1.41-3.2c0.16-0.21,0.1-0.48-0.01-0.89
		c-0.05-0.18-0.1-0.36-0.11-0.54c-0.07-0.63,0.5-1.24,0.92-1.59c-0.12-0.17-0.46-0.52-1.1-1c-0.15-0.11-0.21-0.3-0.16-0.48
		c0.11-0.4,0.74-0.76,1.23-0.81c0.69-0.08,1.48-0.12,2.11-0.12c0.12,0,0.15-0.02,0.15-0.02c0.01-0.04-0.03-0.23-0.05-0.32
		c-0.02-0.11-0.05-0.22-0.05-0.32c-0.04-0.2-0.67-1.04-0.93-1.4l-0.23-0.32c-0.29-0.4,0-1.24,0.28-1.85
		c-0.91-0.28-1.33-0.25-2.06-0.04c-0.93,0.26-2.21,0.79-2.92,1.14c-0.23,0.12-0.48,0.29-0.74,0.48c-0.56,0.41-1.21,0.88-1.97,0.88
		c-0.23,0-0.49,0.05-0.76,0.11c-0.73,0.15-1.64,0.34-2.54-0.34c-0.51-0.38-1.04-0.57-1.42-0.49c-0.16,0.03-0.27,0.1-0.34,0.22
		c-0.05,0.09-0.04,0.28-0.02,0.45c0.02,0.3,0.06,0.7-0.27,0.98c-0.34,0.29-0.85,0.22-1.3,0.1c-1.21-0.3-2.07,0.96-2.08,0.97
		l-0.1,0.14l-0.16,0.05c-0.34,0.11-0.5,0.33-0.82,0.8c-0.18,0.26-0.38,0.56-0.66,0.88c-0.77,0.9-1.09,1.27-1.99,0.6
		c-0.38-0.29-0.88-0.41-1.28-0.31c-0.15,0.04-0.6,0.21-1.07,0.39c-1.14,0.43-2.55,0.97-3.3,1.06c-1.24,0.15-1.77-0.07-2.85-0.88
		c-0.18-0.13-0.26-0.14-0.26-0.14h0c-0.16,0.05-0.46,0.75-0.63,1.18c-0.1,0.23-0.2,0.48-0.31,0.73c-0.57,1.26-0.73,1.9-0.95,2.77
		l-0.07,0.28c-0.12,0.49-0.37,0.79-0.73,0.89c-0.08,0.02-0.16,0.03-0.24,0.03c-0.57,0-1.15-0.53-1.71-1.08
		c-0.77-0.77-0.96-0.96-1.75-1.18c-0.73-0.21-0.73-0.21-1.34,0.1c-0.7,0.35-1.26,0.22-1.67,0.12c-0.15-0.04-0.28-0.07-0.39-0.07
		c-0.67,0-2.01-0.59-2.38-1.14c-0.12-0.17-0.19-0.4-0.28-0.69c-0.16-0.49-0.37-1.17-0.81-1.35c-0.41-0.18-0.58-0.46-0.65-0.67
		c-0.21-0.62,0.2-1.32,0.5-1.83c0.06-0.1,0.12-0.2,0.16-0.28c0.58-1.15,1.52-1.69,2.53-1.44c0.15-0.18-0.01-1.37-0.26-1.7
		c-0.61-0.82,0-2.13,0.28-2.63c-0.25-0.06-0.71-0.07-1,0.05c-0.6,0.24-1.6,0.1-2.22-0.32c-0.36-0.25-0.56-0.58-0.56-0.93
		c0-0.29-0.74-0.85-1.13-1.15c-0.13-0.1-0.26-0.2-0.38-0.29c-0.45-0.36-1.21-0.97-0.63-1.85c0.18-0.27,0.44-1.07,0.44-1.82
		c0-0.39,0.14-0.65,0.4-0.77c0.47-0.2,0.86,0.16,1.58,0.82c0.16,0.14,0.33,0.3,0.51,0.46c0.07-0.23,0.13-0.62,0.17-0.9
		c0.08-0.55,0.18-1.17,0.39-1.65c0.11-0.24,0.06-0.37,0-0.45c-0.21-0.33-0.89-0.54-1.24-0.54c-0.52,0-1.18-0.36-2.07-0.88
		c-0.34-0.2-0.67-0.39-0.87-0.47c-0.91-0.36-2.46-2.8-2.75-3.38c-0.51-1.02-0.27-2.01,0.25-3.17c0.08-0.19,0.05-0.28,0.04-0.31
		c-0.12-0.31-0.8-0.6-1.35-0.83c-0.24-0.1-0.47-0.2-0.68-0.31c-0.59-0.29-0.89-0.82-0.81-1.42c0.09-0.64,0.61-1.23,1.2-1.35
		c0.19-0.04,0.44-0.57,0.62-0.95c0.15-0.31,0.3-0.64,0.5-0.93c0.54-0.81,1.93-0.88,3.15-0.94c0.19-0.01,0.37-0.02,0.54-0.03
		c-0.18-0.22-0.46-0.5-0.63-0.67c-0.38-0.39-0.62-0.64-0.73-0.86c-0.06-0.11-0.39-0.39-0.63-0.59c-0.66-0.55-1.4-1.16-1.51-1.92
		c-0.16-1.09-0.24-1.89-0.26-2.38c-0.46-0.23-2.05-0.51-2.85-0.64c-0.48-0.08-0.91-0.16-1.21-0.22c-0.52-0.12-0.67-0.39-0.7-0.6
		c-0.09-0.54,0.48-0.88,1.2-1.3c0.2-0.12,0.5-0.29,0.6-0.38c0.28-0.66,1.12-0.66,2.02-0.66c0.79,0,1.62-0.14,2.17-0.36
		c0.14-0.06,0.29-0.12,0.46-0.19c0.66-0.29,1.49-0.64,2.27-0.75c1.16-0.16,2.22,0.63,3.25,1.4c0.1,0.08,0.15,0.08,0.15,0.08
		c0.19-0.11,0.43-1.07,0.52-1.43c0.04-0.18,0.08-0.34,0.12-0.49c0.12-0.41,0.33-0.69,0.64-0.85c0.59-0.29,1.32-0.03,2.38,0.39
		c1.17,0.47,1.15,1.11,1.02,1.78c-0.04,0.22-0.09,0.46-0.06,0.72c0.05,0.42,0.09,0.49,1.24,0.48l0.36,0c0.63,0,1.42,0.07,2.19,0.14
		c0.71,0.06,1.38,0.12,1.87,0.12c0.14,0,0.19-0.02,0.19-0.02c-0.02-0.02-0.07-0.25-0.1-0.38c-0.04-0.17-0.07-0.35-0.07-0.53
		c0-0.61,0-1.75,0.8-2.15c0.02-0.06-0.02-0.45-0.58-1.23c-0.26-0.36-0.26-0.7-0.22-0.91c0.13-0.66,0.79-1.08,1.33-1.42
		c0.15-0.1,0.33-0.21,0.39-0.27c0.43-0.44,1.08-0.38,1.83-0.32c0.27,0.02,0.57,0.05,0.88,0.05c1.18,0,2.4,0.92,2.99,1.36
		c0.13,0.07,0.47,0.02,1.03-0.3c0.04-0.45,0.12-1.38,0.17-1.67c0.05-0.27,0.24-0.86,0.5-1.59c0.07-0.2,0.14-0.39,0.18-0.53
		c0.14-0.43-0.11-1.79-0.3-2.3c-0.12-0.18-1.14-0.32-2.31-0.23l-0.3,0.03c-0.62,0.06-1.07,0.1-1.74-0.39
		c-0.3-0.22-0.33-0.19-0.63,0.05c-0.14,0.11-0.3,0.23-0.5,0.34c-0.63,0.34-1.17,0.23-1.6,0.15c-0.1-0.02-0.2-0.04-0.3-0.05
		c-0.68-0.08-0.6-1.07-0.54-1.87c0.01-0.16,0.02-0.3,0.02-0.4c0-0.62,0.84-0.99,1.59-1.31l0.31-0.14c0.5-0.23,0.85-0.19,1.19-0.16
		c0.19,0.02,0.38,0.03,0.63,0.01c0.42-0.04,1.22-1.94,1.31-2.6c0.04-0.35-0.25-0.91-0.82-1.22c-0.73-0.4-0.81-0.6-0.89-1.11
		c-0.05-0.38-0.14-0.58-0.37-0.86c-0.21-0.26-0.65-0.71-0.74-0.8C168.35,49.13,167.97,49.01,167.5,48.78z M121.51,133.33
		c0-0.38,0.18-0.56,0.33-0.65c0.33-0.19,0.83-0.08,1.49,0.32c0.12,0.07,0.22,0.14,0.3,0.19c0.26,0.17,0.26,0.17,0.66,0.03
		c0.23-0.08,0.43-0.08,0.61,0.01c0.33,0.16,0.45,0.55,0.57,0.92c0.05,0.17,0.11,0.35,0.19,0.51c0.03,0.05,0.05,0.07,0.05,0.07
		c0.07-0.01,0.33-0.21,0.58-0.59c0.33-0.5,0.88-0.76,1.46-0.69c0.06,0.01,0.08,0,0.08,0c0.01-0.03,0.02-0.19,0.03-0.3
		c0.01-0.08,0.01-0.15,0.03-0.23c0.1-0.66,3.62-3.53,3.66-3.56c0.63-0.5,0.97-0.78,1.59-0.92c0.12-0.18-0.09-1.25-0.16-1.6
		c-0.04-0.18-0.07-0.34-0.08-0.44c-0.07-0.57,0.36-0.98,0.71-1.32l0.17-0.16c0.18-0.18,0.19-0.71,0.19-1.1
		c0-0.2,0.01-0.39,0.02-0.55c0.07-0.65,0.25-0.85,0.64-1.09c0.15-0.09,0.41-0.51,0.62-0.86c0.11-0.18,0.22-0.35,0.32-0.52
		c0.34-0.52,0.91-0.37,1.24-0.29c0.11,0.03,0.29,0.07,0.35,0.06c0.19-0.09,0.31-0.46,0.31-0.94c0-0.2-0.1-0.35-0.23-0.56
		c-0.1-0.15-0.21-0.33-0.3-0.55c-0.09-0.23-0.03-0.41,0.03-0.51c0.21-0.38,0.8-0.49,1.37-0.6l0.17-0.03
		c0.76-0.15,1.02,0.88,1.21,1.64c0.04,0.15,0.07,0.28,0.1,0.38c0.07-0.05,0.17-0.13,0.23-0.19c0.14-0.11,0.28-0.23,0.43-0.33
		c0.22-0.14,0.7-0.59,1.13-0.99c0.6-0.56,0.98-0.91,1.21-1.04c0.24-0.13,0.02-0.58,0-0.63c-0.02-0.04-0.13-0.17-0.2-0.26
		c-0.3-0.37-0.68-0.83-0.62-1.26c0.04-0.29,0.21-0.52,0.37-0.72c0.07-0.09,0.18-0.23,0.18-0.29c-0.13-0.2-1.49-1.1-1.96-1.21
		c-0.31-0.07-0.4-0.26-0.43-0.37c-0.08-0.32,0.15-0.68,0.82-1.26c-0.11-0.09-0.32-0.21-0.45-0.29c-0.29-0.17-0.55-0.33-0.69-0.53
		c-0.09-0.13-0.11-0.28-0.08-0.43c0.09-0.37,0.53-0.64,1.1-0.95l0.18-0.1c0.13-0.18-0.15-1.23-0.48-1.51
		c-0.28-0.24-0.26-0.5-0.23-0.63c0.11-0.42,0.67-0.66,0.92-0.71c0.32-0.06,0.84,0.1,1.44,0.31l0.06,0.02c0-0.11-0.01-0.3-0.09-0.63
		c-0.09-0.41-0.94-1.06-1.21-1.1l-0.08-0.01c-0.52-0.08-1.5-0.24-1.59-0.93c-0.03-0.22-0.03-0.22-0.24-0.22
		c-0.37,0-1.37-0.51-1.75-0.89c-0.18-0.18-0.26-0.37-0.24-0.58c0.03-0.36,0.35-0.62,0.71-0.88c0.36-0.26,0.9-0.79,1.09-1.01
		c-0.07-0.23-0.37-0.79-0.56-1.14c-0.2-0.38-0.38-0.71-0.45-0.91c-0.07-0.18-0.16-0.31-0.27-0.34c-0.12-0.05-0.28,0.02-0.39,0.08
		c-0.56,0.31-1.74,0.26-2.81,0.16c-0.12-0.01-0.2,0-0.24,0.03c-0.09,0.08-0.09,0.44-0.09,0.76l0,0.28c0.01,0.43,0.01,0.69-0.44,0.87
		c-0.61,0.25-1.32-0.61-1.4-0.71c-0.22-0.27-0.57-0.5-0.91-0.73c-0.24-0.16-0.3-0.35-0.32-0.48c-0.03-0.34,0.22-0.63,0.51-0.92
		c0.36-0.36,1.12-1.12,1.7-1.5c0.05-0.04,0.07-0.06,0.07-0.07c0-0.06-0.16-0.24-0.24-0.32c-0.09-0.1-0.18-0.2-0.23-0.29
		c-0.07,0.02-0.53,0.24-0.78,0.35c-0.1,0.05-0.2,0.1-0.3,0.14c-0.31,0.14-0.53,0.07-0.65-0.01c-0.33-0.22-0.34-0.71-0.34-0.94
		c-0.01,0-0.09-0.06-0.36-0.06c-0.64,0-1.05-0.85-1.05-1.29c-0.03-0.12-0.41-0.45-0.57-0.59c-0.1-0.09-0.19-0.17-0.25-0.23
		c-0.05,0.01-0.35,0.15-0.54,0.23c-0.24,0.1-0.46,0.2-0.66,0.23c-0.15,0.02-0.3-0.02-0.4-0.13c-0.24-0.25-0.15-0.72-0.04-1.26
		c0.04-0.2,0.08-0.4,0.08-0.51c0-0.29-0.36-0.75-0.5-0.79c0,0,0,0,0,0c-0.5,0-0.78-0.66-0.78-1.29c0-0.11-0.12-0.21-0.31-0.37
		c-0.15-0.12-0.31-0.25-0.43-0.43c-0.21-0.31-1.15-1.2-1.54-1.43c-0.36-0.21-0.48-0.52-0.57-0.8c-0.05-0.15-0.11-0.31-0.21-0.47
		c-0.23-0.37-0.2-0.74-0.13-0.99c-0.39-0.2-0.91-0.45-1.07-0.33c-0.09,0.07-0.22,0.18-0.37,0.31c-0.66,0.57-1.12,0.94-1.51,0.81
		c-0.1-0.03-0.27-0.13-0.32-0.39c-0.09-0.43-0.4-0.85-0.68-1.22l-0.19-0.25c-0.09-0.13-0.15-0.26-0.19-0.37
		c-0.08-0.21-0.11-0.29-0.83-0.12c-0.74,0.18-1.44,0.31-2.11,0.44c-0.49,0.1-0.97,0.19-1.44,0.29c-0.24,0.05-0.45,0.11-0.65,0.17
		c-0.75,0.2-1.39,0.38-1.99-0.1c-0.17-0.13-0.33-0.29-0.49-0.44c-0.31-0.29-0.74-0.68-0.91-0.61c-0.17,0.06-0.34,0.16-0.51,0.26
		c-0.32,0.18-0.65,0.37-1,0.37c-0.1,0-0.21-0.01-0.33-0.02c-0.36-0.03-0.74-0.06-0.97,0.17c-0.16,0.16-0.33,0.49-0.49,0.81
		c-0.22,0.44-0.42,0.85-0.71,1.05c-0.09,0.06-0.13,0.14-0.19,0.27c-0.14,0.31-0.32,0.59-0.95,0.64c-0.37,0.03-0.63-0.03-0.81-0.07
		c-0.22-0.05-0.26-0.06-0.43,0.07c-0.07,0.06-0.15,0.12-0.24,0.18c-0.43,0.35-1.02,0.79-1.79,0.92c0,0.23-0.04,0.45-0.18,0.65
		l-0.1,0.14c-0.21,0.29-0.45,0.62-0.37,0.79c0.26,0.52,0.03,1.24-0.34,1.51c-0.13,0.1-0.21,0.42-0.11,0.59
		c0.2,0.33,0.06,0.84-0.01,1.04c-0.08,0.24-0.26,0.66-0.58,0.78c-0.35,0.14-1.46,0.4-2.12,0.4c-0.65,0-1.31-0.12-1.77-0.98
		c-0.2-0.37-0.38-0.89-0.55-1.4c-0.15-0.46-0.31-0.93-0.45-1.14c-0.25-0.41-1.09-0.79-1.36-0.79c-0.06,0-0.13,0-0.21-0.01
		c-0.78-0.03-0.97,0.06-0.99,0.14l-0.04,0.16c-0.12,0.51-0.26,1.08-0.61,1.43l-0.06,0.06c-0.08,0.08-0.23,0.23-0.27,0.31
		c0.02,0,0.07,0.03,0.15,0.06c0.7,0.26,1.55,1.35,1.6,1.79c0.03,0.23-0.1,0.34-0.16,0.38c-0.03,0.02-0.09,0.06-0.17,0.11
		c-1.75,1.07-1.98,1.42-2,1.5c-0.01,0.12,0,0.33,0.01,0.53c0.03,0.51,0.07,1.14-0.45,1.23c-0.2,0.04-1.4,0.59-2.91,1.35
		c-0.15,0.08-0.53,0.41-0.66,0.6c0.26,0.2,0.52,0.51,0.56,0.84c0.03,0.21-0.04,0.41-0.19,0.56c-0.33,0.33-1.3,1.83-1.35,2.19
		c-0.01,0.12,0.03,0.37,0.07,0.59c0.09,0.51,0.18,1-0.1,1.26c-0.1,0.09-0.27,0.18-0.55,0.1c-0.19-0.05-0.35-0.11-0.49-0.16
		c-0.4-0.14-0.66-0.23-1.19-0.15c-0.26,0.04-0.38,0.15-0.51,0.27c-0.26,0.24-0.54,0.42-1.11,0.14c-0.87-0.43-1.55-0.47-1.74-0.47
		c-0.6,0-0.9-0.24-1.05-0.86c-0.05-0.19-0.27-0.36-0.56-0.58c-0.23-0.18-0.5-0.38-0.75-0.66c-0.59-0.66-1.34-1.11-1.7-1.03
		c-0.18,0.04-0.42,0.16-0.68,0.29c-0.49,0.25-1,0.5-1.46,0.4c-0.4-0.09-1.73-0.42-2.01-0.89c-0.15-0.25-0.53-0.8-0.83-0.64
		c-0.09,0.05-0.2,0.12-0.31,0.19c-0.64,0.39-1.5,0.91-2.09,0.48c-0.11-0.09-0.21-0.18-0.3-0.26c-0.29-0.27-0.37-0.36-0.91-0.03
		c-0.84,0.5-1.35,2.09-1.35,2.42c0,0.97,0.22,1.5,0.31,1.5c0.57,0,2.64,0.67,2.75,1.39c0.05,0.36-0.08,0.67-0.21,0.96
		c-0.06,0.15-0.13,0.3-0.17,0.47c-0.1,0.39-0.56,1.93-0.77,2.64c0.61,0.16,1.13,0.28,1.28,0.28c0.3,0,0.55,0.14,0.68,0.38
		c0.22,0.42,0.05,1.02-0.57,1.95c-0.17,0.25-0.32,0.45-0.46,0.62c-0.36,0.46-0.48,0.61-0.4,1.21c0.08,0.58,0.08,0.92,0.08,1.2
		c0,0.26,0,0.46,0.07,0.8c0.18,0.88,0.17,1.88-0.02,2.43c-0.14,0.42-0.24,2.29-0.03,2.73c0.25,0.51,0.98,2.77,0.22,3.53
		c-0.34,0.34-1.53,3.21-1.9,4.31c-0.22,0.65-0.86,2.21-2.18,2.65c-0.84,0.28-3.09,2.21-3.24,2.69c0.01,0.13,0.16,0.49,0.3,0.82
		c0.23,0.54,0.49,1.16,0.49,1.77c0,0.42-0.04,2.58-0.77,3.31c-0.14,0.14-0.4,0.34-0.71,0.58c-0.44,0.33-1.6,1.22-1.63,1.56
		c0,0.24,0.16,0.68,0.31,1.12c0.27,0.76,0.57,1.62,0.46,2.37l-0.04,0.3c-0.16,1.18-0.33,2.39-0.88,2.94
		c-0.15,0.15-0.33,0.32-0.54,0.51c-0.44,0.4-0.98,0.91-1.28,1.3c-0.22,0.29-0.35,0.57-0.41,0.75l0.32-0.06
		c0.84-0.16,1.8-0.34,2.64,0.33c0.02,0.01,1.31,1.09,1.77,2.12c0.51-0.2,1.52-0.59,1.95-0.69c0.25-0.06,0.41,0.03,0.5,0.11
		c0.24,0.22,0.19,0.6,0.13,1.08c-0.03,0.22-0.06,0.47-0.06,0.7c0,0.14,0.03,0.18,0.03,0.18c0.01,0,0.15,0.03,0.67-0.26
		c0.14-0.08,0.28-0.36,0.42-0.62c0.16-0.32,0.35-0.68,0.63-0.93c0.5-0.43,1-0.24,1.4-0.08c0.13,0.05,0.26,0.1,0.4,0.13
		c0.19,0.04,0.51-0.36,0.75-0.65c0.16-0.2,0.33-0.41,0.51-0.56c0.5-0.44,0.68-0.45,1.29-0.45l0.26,0c0.06,0,0.11-0.01,0.13-0.03
		c0.08-0.09,0.02-0.51-0.01-0.75c-0.03-0.21-0.06-0.43-0.06-0.62c0-0.21,0.09-0.38,0.26-0.47c0.35-0.19,0.92,0.03,2.02,0.75
		c0.08-0.18,0.17-0.58,0.17-0.83c0-0.45,0.58-2.04,0.91-2.5c0.03-0.15-0.4-0.69-0.62-0.95c-0.19-0.24-0.37-0.46-0.5-0.67
		c-0.2-0.34-0.32-0.62-0.23-0.88c0.09-0.28,0.37-0.4,0.56-0.48c0.49-0.21,1.94-0.39,3.31-0.33c0.2,0.01,0.33,0,0.41,0
		c-0.06-0.17-0.14-0.42-0.05-0.7c0.16-0.49,0.92-0.83,1.89-1.21c0.25-0.1,0.46-0.18,0.57-0.24c0.64-0.36,0.98-0.02,1.6,0.6
		c0.02,0.02,0.04,0.04,0.06,0.06c0-0.01,0.01-0.02,0.01-0.03c0.08-0.19,0.18-0.44,0.39-0.68c0.56-0.62,1.75-1.09,2.3-0.72
		c0.57,0.38,0.89,1.75,0.93,1.9c0.01,0.06,0.03,0.08,0.03,0.08c0.07-0.01,0.42-0.22,0.6-0.34c0.38-0.24,1.29-0.26,2.44-0.27
		c0.35,0,0.65,0,0.81-0.02c0.1-0.06,0.09-0.35,0.09-0.5c-0.01-0.18-0.01-0.37,0-0.56c0.08-0.82,0.38-1,1.53-1.25
		c0.33-0.07,0.46-0.12,0.5-0.15c-0.01-0.01-0.01-0.03-0.02-0.06c-0.01-0.12-0.04-0.3,0.01-0.53c0.08-0.4,0.35-0.43,0.44-0.43
		c0,0,0,0,0,0c0.53,0,1.01,1.11,1.08,1.46c0.07,0.31,0.24,0.56,0.4,0.8c0.09,0.14,0.18,0.27,0.25,0.41c0.05,0.1,0.1,0.11,0.15,0.12
		c0.07,0.01,0.22-0.01,0.47-0.14c0.17-0.09,0.43-0.19,0.67-0.1c0.25,0.09,0.34,0.33,0.41,0.51c0.05,0.12,0.12,0.27,0.2,0.47
		c0.39,0.88,0.78,1.78,0.87,2.2c0.05,0.21,0.12,0.45,0.2,0.68c0.12,0.39,0.24,0.76,0.24,1.03c0,0.26,0.3,0.62,0.6,0.96
		c0.34,0.4,0.14,1.05-0.06,1.69c-0.04,0.14-0.09,0.28-0.12,0.41c0.32-0.22,0.81-0.65,1.11-1c0.24-0.27,0.54-0.36,0.84-0.25
		c0.31,0.12,0.56,0.46,0.61,0.81c0.1-0.02,0.23-0.06,0.32-0.09c0.19-0.06,0.42-0.12,0.62-0.15c0.29-0.03,0.44,0.08,0.52,0.19
		c0.21,0.29,0.04,0.69-0.14,1.12c-0.04,0.09-0.08,0.19-0.11,0.27c0.02,0.02,0.17,0.1,0.27,0.16c0.25,0.14,0.6,0.32,0.81,0.67
		c0.25,0.42,0.32,0.69,0,0.96c-0.05,0.04-0.08,0.07-0.11,0.13c-0.01,0.07,0.12,0.18,0.43,0.22c0.46,0.06,0.59,0.3,0.72,0.54
		c0.07,0.13,0.16,0.29,0.33,0.48c0.06,0.07,0.09,0.08,0.09,0.08c0.01-0.04,0.15-0.29,0.25-0.48c0.1-0.17,0.2-0.36,0.33-0.55
		c0.42-0.62,0.88-1.2,1.38-1.7c0.34-0.34,0.79-0.45,1.28-0.57c0.14-0.03,0.28-0.07,0.42-0.11c-0.04-0.05-0.08-0.1-0.11-0.14
		c-0.1-0.12-0.21-0.25-0.29-0.39c-0.06-0.11-0.11-0.2-0.16-0.3c-0.13-0.26-0.21-0.42-0.46-0.57c-0.54-0.31-0.58-0.61-0.58-0.94
		c0-0.56,1.37-1.36,1.38-1.37c0.42-0.24,2.07-1.22,2.43-1.46c0.65-0.43,1.22,0.27,1.94,1.16c0.07,0.08,0.12,0.15,0.17,0.2
		c0.06-0.12,0.14-0.26,0.31-0.34c0.05-0.11,0.02-0.71-0.13-1.73l-0.04-0.27c-0.08-0.64,0.38-1.4,0.64-1.66
		c0.15-0.15,1.97-1.82,2.7-2.03c0.6-0.18,0.79-0.28,1.06-0.49c0.1-0.08,0.32-0.34,0.52-0.58c0.34-0.41,0.73-0.86,1.07-1.13
		c0.42-0.33,0.69-0.4,0.95-0.48c0.1-0.03,0.21-0.06,0.34-0.11c0.22-0.09,0.58-0.85,0.73-1.55c0.13-0.57,0.81-0.66,1.47-0.75
		c0.29-0.04,0.59-0.08,0.81-0.15c0.25-0.08,0.29-0.22,0.2-0.85C121.53,133.71,121.51,133.52,121.51,133.33z"/>
</g>
<g id="hradec">
</g>
<g id="symbol">
	<g id="capital_district_1_">
		<circle class="st2" cx="57.89" cy="63" r="3"/>
		<circle class="st2" cx="123.39" cy="45.75" r="3"/>
		<circle class="st2" cx="99.64" cy="117.75" r="3"/>
	</g>
	<g id="capital_region_1_">
	</g>
	<g id="capital_1_">
		<rect x="159.9" y="83.02" class="st2" width="8.08" height="8.08"/>
	</g>
</g>
<g id="letter">
	<g id="capital_district">
		<g>
			<g>
				<path class="st3" d="M37.07,50.32c0.48-0.1,1.18-0.15,1.84-0.15c1.02,0,1.68,0.19,2.15,0.61c0.37,0.33,0.58,0.84,0.58,1.41
					c0,0.98-0.62,1.63-1.4,1.89v0.03c0.57,0.2,0.91,0.73,1.09,1.5c0.24,1.03,0.42,1.75,0.57,2.04H40.9
					c-0.12-0.21-0.29-0.85-0.5-1.77c-0.22-1.02-0.62-1.41-1.49-1.44h-0.9v3.21h-0.96V50.32z M38.02,53.7H39
					c1.02,0,1.67-0.56,1.67-1.41c0-0.96-0.69-1.38-1.71-1.39c-0.46,0-0.79,0.04-0.95,0.09V53.7z"/>
				<path class="st3" d="M46.03,57.64l-0.08-0.67h-0.03c-0.3,0.42-0.87,0.79-1.63,0.79c-1.08,0-1.63-0.76-1.63-1.53
					c0-1.29,1.14-1.99,3.2-1.98v-0.11c0-0.44-0.12-1.23-1.21-1.23c-0.5,0-1.01,0.15-1.39,0.4l-0.22-0.64
					c0.44-0.29,1.08-0.47,1.75-0.47c1.63,0,2.02,1.11,2.02,2.18v1.99c0,0.46,0.02,0.91,0.09,1.28H46.03z M45.89,54.92
					c-1.06-0.02-2.26,0.17-2.26,1.2c0,0.63,0.42,0.92,0.91,0.92c0.69,0,1.13-0.44,1.29-0.89c0.03-0.1,0.05-0.21,0.05-0.31V54.92z"/>
				<path class="st3" d="M49.34,54.76h0.02c0.13-0.19,0.32-0.42,0.47-0.6l1.56-1.84h1.17l-2.06,2.19l2.34,3.14h-1.18l-1.84-2.55
					l-0.5,0.55v2h-0.96v-7.81h0.96V54.76z"/>
				<path class="st3" d="M58.36,54.93c0,1.97-1.36,2.83-2.65,2.83c-1.44,0-2.55-1.06-2.55-2.74c0-1.78,1.17-2.83,2.64-2.83
					C57.33,52.19,58.36,53.3,58.36,54.93z M54.14,54.99c0,1.17,0.67,2.05,1.62,2.05c0.92,0,1.62-0.87,1.62-2.07
					c0-0.9-0.45-2.05-1.6-2.05C54.63,52.92,54.14,53.98,54.14,54.99z"/>
				<path class="st3" d="M59.88,52.31l1.05,2.99c0.18,0.48,0.32,0.92,0.43,1.36h0.03c0.12-0.44,0.27-0.88,0.45-1.36l1.03-2.99h1.01
					l-2.09,5.32h-0.92l-2.02-5.32H59.88z"/>
				<path class="st3" d="M64.8,53.76c0-0.55-0.01-1-0.04-1.44h0.86l0.06,0.88h0.02c0.26-0.51,0.88-1,1.76-1
					c0.74,0,1.88,0.44,1.88,2.27v3.18h-0.97v-3.07c0-0.86-0.32-1.57-1.23-1.57c-0.64,0-1.13,0.45-1.3,0.99
					c-0.04,0.12-0.07,0.29-0.07,0.45v3.2H64.8V53.76z"/>
				<path class="st3" d="M72.87,50.02l-1.34,1.57h-0.69l0.97-1.57H72.87z M70.9,57.64v-5.32h0.97v5.32H70.9z"/>
				<path class="st3" d="M74.43,54.76h0.02c0.13-0.19,0.32-0.42,0.47-0.6l1.56-1.84h1.17L75.6,54.5l2.34,3.14h-1.18l-1.84-2.55
					l-0.5,0.55v2h-0.96v-7.81h0.96V54.76z"/>
			</g>
		</g>
		<g>
			<path class="st3" d="M109.86,32.61h0.96v3.58h0.03c0.2-0.29,0.4-0.55,0.58-0.79l2.27-2.78h1.19l-2.68,3.15l2.89,4.27h-1.13
				l-2.44-3.64l-0.7,0.81v2.83h-0.96V32.61z"/>
			<path class="st3" d="M115.9,32.21h0.97v7.81h-0.97V32.21z"/>
			<path class="st3" d="M121.44,40.02l-0.08-0.67h-0.03c-0.3,0.42-0.87,0.79-1.63,0.79c-1.08,0-1.63-0.76-1.63-1.53
				c0-1.29,1.14-1.99,3.2-1.98v-0.11c0-0.44-0.12-1.23-1.21-1.23c-0.5,0-1.01,0.15-1.39,0.4l-0.22-0.64
				c0.44-0.29,1.08-0.47,1.75-0.47c1.63,0,2.02,1.11,2.02,2.18v1.99c0,0.46,0.02,0.91,0.09,1.28H121.44z M121.3,37.31
				c-1.06-0.02-2.26,0.17-2.26,1.2c0,0.63,0.42,0.92,0.91,0.92c0.69,0,1.13-0.44,1.29-0.89c0.03-0.1,0.05-0.21,0.05-0.31V37.31z"/>
			<path class="st3" d="M128.39,32.21v6.44c0,0.47,0.01,1.01,0.04,1.38h-0.87l-0.04-0.92h-0.02c-0.3,0.59-0.95,1.05-1.82,1.05
				c-1.29,0-2.28-1.09-2.28-2.71c-0.01-1.77,1.09-2.86,2.39-2.86c0.81,0,1.36,0.39,1.61,0.81h0.02v-3.18H128.39z M127.43,36.87
				c0-0.12-0.01-0.29-0.04-0.41c-0.14-0.62-0.67-1.12-1.4-1.12c-1,0-1.6,0.88-1.6,2.06c0,1.08,0.53,1.97,1.57,1.97
				c0.65,0,1.24-0.43,1.42-1.16c0.03-0.13,0.04-0.26,0.04-0.42V36.87z"/>
			<path class="st3" d="M130,36.14c0-0.55-0.01-1-0.04-1.44h0.86l0.06,0.88h0.02c0.26-0.51,0.88-1,1.76-1
				c0.74,0,1.88,0.44,1.88,2.27v3.18h-0.97v-3.07c0-0.86-0.32-1.57-1.23-1.57c-0.64,0-1.13,0.45-1.3,0.99
				c-0.04,0.12-0.07,0.29-0.07,0.45v3.2H130V36.14z"/>
			<path class="st3" d="M140.92,37.32c0,1.97-1.36,2.83-2.65,2.83c-1.44,0-2.55-1.06-2.55-2.74c0-1.78,1.17-2.83,2.64-2.83
				C139.89,34.58,140.92,35.69,140.92,37.32z M136.7,37.37c0,1.17,0.67,2.05,1.62,2.05c0.92,0,1.62-0.87,1.62-2.07
				c0-0.9-0.45-2.05-1.6-2.05C137.19,35.3,136.7,36.36,136.7,37.37z"/>
		</g>
		<g>
			<path class="st3" d="M86.27,104.96c0.42-0.09,1.08-0.15,1.75-0.15c0.96,0,1.57,0.17,2.04,0.54c0.39,0.29,0.62,0.73,0.62,1.31
				c0,0.71-0.47,1.34-1.25,1.63v0.02c0.7,0.18,1.53,0.76,1.53,1.86c0,0.64-0.25,1.12-0.63,1.49c-0.52,0.47-1.35,0.69-2.56,0.69
				c-0.66,0-1.17-0.04-1.49-0.09V104.96z M87.23,108h0.87c1.01,0,1.61-0.53,1.61-1.24c0-0.87-0.66-1.21-1.63-1.21
				c-0.44,0-0.69,0.03-0.85,0.07V108z M87.23,111.55c0.19,0.03,0.46,0.04,0.8,0.04c0.99,0,1.9-0.36,1.9-1.44
				c0-1.01-0.87-1.43-1.91-1.43h-0.79V111.55z"/>
			<path class="st3" d="M92.78,109.79c0.02,1.31,0.86,1.85,1.83,1.85c0.69,0,1.11-0.12,1.47-0.27l0.17,0.69
				c-0.34,0.15-0.92,0.33-1.77,0.33c-1.64,0-2.62-1.08-2.62-2.68c0-1.61,0.95-2.87,2.5-2.87c1.74,0,2.2,1.53,2.2,2.51
				c0,0.2-0.02,0.35-0.03,0.45H92.78z M95.62,109.1c0.01-0.62-0.25-1.57-1.34-1.57c-0.98,0-1.41,0.9-1.49,1.57H95.62z"/>
			<path class="st3" d="M97.76,108.61c0-0.63-0.01-1.17-0.04-1.66h0.85l0.03,1.04h0.04c0.24-0.71,0.83-1.17,1.47-1.17
				c0.11,0,0.19,0.01,0.28,0.03v0.91c-0.1-0.02-0.2-0.03-0.33-0.03c-0.68,0-1.17,0.52-1.3,1.24c-0.02,0.13-0.04,0.29-0.04,0.45v2.84
				h-0.96V108.61z"/>
			<path class="st3" d="M106.06,109.57c0,1.97-1.36,2.83-2.65,2.83c-1.44,0-2.55-1.06-2.55-2.74c0-1.78,1.17-2.83,2.64-2.83
				C105.03,106.83,106.06,107.94,106.06,109.57z M101.84,109.63c0,1.17,0.67,2.05,1.62,2.05c0.92,0,1.62-0.87,1.62-2.07
				c0-0.9-0.45-2.05-1.6-2.05C102.33,107.56,101.84,108.61,101.84,109.63z"/>
			<path class="st3" d="M111.74,110.82c0,0.55,0.01,1.03,0.04,1.45h-0.86l-0.06-0.87h-0.02c-0.25,0.43-0.81,0.99-1.76,0.99
				c-0.84,0-1.84-0.46-1.84-2.33v-3.11h0.97v2.95c0,1.01,0.31,1.69,1.19,1.69c0.65,0,1.1-0.45,1.28-0.88
				c0.06-0.14,0.09-0.32,0.09-0.5v-3.27h0.97V110.82z"/>
			<path class="st3" d="M113.34,108.39c0-0.55-0.01-1-0.04-1.44h0.86l0.06,0.88h0.02c0.26-0.51,0.88-1,1.76-1
				c0.74,0,1.88,0.44,1.88,2.27v3.18h-0.97v-3.07c0-0.86-0.32-1.57-1.23-1.57c-0.64,0-1.13,0.45-1.3,0.99
				c-0.04,0.12-0.07,0.29-0.07,0.45v3.2h-0.97V108.39z"/>
		</g>
		<g>
			<path class="st3" d="M208.4,125.26l1.04,2.99c0.18,0.48,0.32,0.92,0.43,1.36h0.03c0.12-0.44,0.27-0.88,0.45-1.36l1.03-2.99h1.01
				l-2.09,5.32h-0.92l-2.02-5.32H208.4z"/>
			<path class="st3" d="M213.8,125.26l1.17,3.15c0.12,0.35,0.25,0.77,0.34,1.09h0.02c0.1-0.32,0.21-0.73,0.34-1.11l1.06-3.12h1.02
				l-1.45,3.8c-0.69,1.83-1.17,2.76-1.83,3.33c-0.47,0.42-0.95,0.58-1.19,0.63l-0.24-0.81c0.24-0.08,0.56-0.23,0.85-0.47
				c0.26-0.21,0.59-0.58,0.81-1.08c0.04-0.1,0.08-0.18,0.08-0.23c0-0.06-0.02-0.13-0.07-0.25l-1.97-4.91H213.8z M216.85,122.96
				l-1.34,1.57h-0.69l0.97-1.57H216.85z"/>
			<path class="st3" d="M222.32,130.38c-0.25,0.13-0.81,0.31-1.53,0.31c-1.61,0-2.65-1.09-2.65-2.72c0-1.64,1.12-2.83,2.86-2.83
				c0.57,0,1.08,0.14,1.34,0.27l-0.22,0.75c-0.23-0.13-0.59-0.25-1.12-0.25c-1.22,0-1.88,0.9-1.88,2.01c0,1.23,0.79,1.99,1.85,1.99
				c0.55,0,0.91-0.14,1.19-0.26L222.32,130.38z"/>
			<path class="st3" d="M223.45,122.77h0.97v3.32h0.02c0.15-0.27,0.4-0.52,0.69-0.68c0.29-0.17,0.63-0.27,0.99-0.27
				c0.71,0,1.86,0.44,1.86,2.28v3.17h-0.97v-3.06c0-0.86-0.32-1.58-1.23-1.58c-0.63,0-1.12,0.44-1.3,0.97
				c-0.06,0.13-0.07,0.27-0.07,0.46v3.21h-0.97V122.77z"/>
			<path class="st3" d="M234.37,127.88c0,1.97-1.36,2.83-2.65,2.83c-1.44,0-2.55-1.06-2.55-2.74c0-1.78,1.17-2.83,2.64-2.83
				C233.34,125.14,234.37,126.25,234.37,127.88z M230.15,127.93c0,1.17,0.67,2.05,1.62,2.05c0.92,0,1.62-0.87,1.62-2.07
				c0-0.9-0.45-2.05-1.6-2.05C230.65,125.86,230.15,126.92,230.15,127.93z"/>
			<path class="st3" d="M240.19,122.77v6.44c0,0.47,0.01,1.01,0.04,1.38h-0.87l-0.04-0.92h-0.02c-0.3,0.59-0.95,1.05-1.82,1.05
				c-1.29,0-2.28-1.09-2.28-2.71c-0.01-1.77,1.09-2.86,2.39-2.86c0.81,0,1.36,0.39,1.61,0.81h0.02v-3.18H240.19z M239.23,127.43
				c0-0.12-0.01-0.29-0.04-0.41c-0.14-0.62-0.67-1.12-1.4-1.12c-1,0-1.6,0.88-1.6,2.06c0,1.08,0.53,1.97,1.57,1.97
				c0.65,0,1.24-0.43,1.42-1.16c0.03-0.13,0.04-0.26,0.04-0.42V127.43z"/>
		</g>
		<g>
			<path class="st3" d="M210.19,113.8c0.46-0.08,1.07-0.14,1.84-0.14c0.95,0,1.64,0.22,2.08,0.62c0.41,0.35,0.65,0.89,0.65,1.55
				c0,0.67-0.2,1.2-0.57,1.58c-0.51,0.54-1.33,0.81-2.27,0.81c-0.29,0-0.55-0.01-0.77-0.07v2.97h-0.96V113.8z M211.15,117.37
				c0.21,0.06,0.47,0.08,0.79,0.08c1.16,0,1.86-0.56,1.86-1.58c0-0.98-0.69-1.45-1.75-1.45c-0.42,0-0.74,0.03-0.9,0.08V117.37z"/>
			<path class="st3" d="M215.83,117.46c0-0.63-0.01-1.17-0.04-1.66h0.85l0.03,1.04h0.04c0.24-0.71,0.83-1.17,1.47-1.17
				c0.11,0,0.19,0.01,0.28,0.03v0.91c-0.1-0.02-0.2-0.03-0.33-0.03c-0.68,0-1.17,0.52-1.3,1.24c-0.02,0.13-0.04,0.29-0.04,0.45v2.84
				h-0.96V117.46z"/>
			<path class="st3" d="M222.32,121.12l-0.08-0.67h-0.03c-0.3,0.42-0.87,0.79-1.63,0.79c-1.08,0-1.63-0.76-1.63-1.53
				c0-1.29,1.14-1.99,3.2-1.98v-0.11c0-0.44-0.12-1.23-1.21-1.23c-0.5,0-1.01,0.15-1.39,0.4l-0.22-0.64
				c0.44-0.29,1.08-0.47,1.75-0.47c1.63,0,2.02,1.11,2.02,2.18v1.99c0,0.46,0.02,0.91,0.09,1.28H222.32z M222.18,118.4
				c-1.06-0.02-2.26,0.17-2.26,1.2c0,0.63,0.42,0.92,0.91,0.92c0.69,0,1.13-0.44,1.29-0.89c0.03-0.1,0.05-0.21,0.05-0.31V118.4z"/>
			<path class="st3" d="M224.68,113.31h0.97v3.32h0.02c0.15-0.27,0.4-0.52,0.69-0.68c0.29-0.17,0.63-0.27,0.99-0.27
				c0.71,0,1.86,0.44,1.86,2.28v3.17h-0.97v-3.06c0-0.86-0.32-1.58-1.23-1.58c-0.63,0-1.12,0.44-1.3,0.97
				c-0.06,0.13-0.07,0.27-0.07,0.46v3.21h-0.97V113.31z"/>
			<path class="st3" d="M233.73,121.12l-0.08-0.67h-0.03c-0.3,0.42-0.87,0.79-1.63,0.79c-1.08,0-1.63-0.76-1.63-1.53
				c0-1.29,1.14-1.99,3.2-1.98v-0.11c0-0.44-0.12-1.23-1.21-1.23c-0.5,0-1.01,0.15-1.39,0.4l-0.22-0.64
				c0.44-0.29,1.08-0.47,1.75-0.47c1.63,0,2.02,1.11,2.02,2.18v1.99c0,0.46,0.02,0.91,0.09,1.28H233.73z M233.59,118.4
				c-1.06-0.02-2.26,0.17-2.26,1.2c0,0.63,0.42,0.92,0.91,0.92c0.69,0,1.13-0.44,1.29-0.89c0.03-0.1,0.05-0.21,0.05-0.31V118.4z"/>
			<path class="st3" d="M238.33,117.79v0.72h-2.72v-0.72H238.33z"/>
		</g>
		<g>
			<path class="st3" d="M143.73,119.59c0.46-0.08,1.07-0.14,1.84-0.14c0.95,0,1.64,0.22,2.08,0.62c0.41,0.35,0.65,0.89,0.65,1.55
				c0,0.67-0.2,1.2-0.57,1.58c-0.51,0.54-1.33,0.81-2.27,0.81c-0.29,0-0.55-0.01-0.77-0.07v2.97h-0.96V119.59z M144.69,123.16
				c0.21,0.05,0.47,0.08,0.79,0.08c1.16,0,1.86-0.56,1.86-1.58c0-0.98-0.69-1.45-1.75-1.45c-0.42,0-0.74,0.03-0.9,0.08V123.16z"/>
			<path class="st3" d="M149.37,123.25c0-0.63-0.01-1.17-0.04-1.66h0.85l0.03,1.04h0.04c0.24-0.71,0.83-1.17,1.47-1.17
				c0.11,0,0.19,0.01,0.28,0.03v0.91c-0.1-0.02-0.2-0.03-0.33-0.03c-0.68,0-1.17,0.52-1.3,1.24c-0.02,0.13-0.04,0.29-0.04,0.45v2.84
				h-0.96V123.25z"/>
			<path class="st3" d="M155.86,126.92l-0.08-0.67h-0.03c-0.3,0.42-0.87,0.79-1.63,0.79c-1.08,0-1.63-0.76-1.63-1.53
				c0-1.29,1.14-1.99,3.2-1.98v-0.11c0-0.44-0.12-1.23-1.21-1.23c-0.5,0-1.01,0.15-1.39,0.4l-0.22-0.64
				c0.44-0.29,1.08-0.47,1.75-0.47c1.63,0,2.02,1.11,2.02,2.18v1.99c0,0.46,0.02,0.91,0.09,1.28H155.86z M155.72,124.2
				c-1.06-0.02-2.26,0.17-2.26,1.2c0,0.63,0.42,0.92,0.91,0.92c0.69,0,1.13-0.44,1.29-0.89c0.03-0.1,0.05-0.21,0.05-0.31V124.2z"/>
			<path class="st3" d="M158.22,119.11h0.97v3.32h0.02c0.15-0.27,0.4-0.52,0.69-0.68c0.29-0.17,0.63-0.27,0.99-0.27
				c0.71,0,1.86,0.44,1.86,2.28v3.17h-0.97v-3.06c0-0.86-0.32-1.58-1.23-1.58c-0.63,0-1.12,0.44-1.3,0.97
				c-0.06,0.13-0.07,0.27-0.07,0.46v3.21h-0.97V119.11z"/>
			<path class="st3" d="M167.27,126.92l-0.08-0.67h-0.03c-0.3,0.42-0.87,0.79-1.63,0.79c-1.08,0-1.63-0.76-1.63-1.53
				c0-1.29,1.14-1.99,3.2-1.98v-0.11c0-0.44-0.12-1.23-1.21-1.23c-0.5,0-1.01,0.15-1.39,0.4l-0.22-0.64
				c0.44-0.29,1.08-0.47,1.75-0.47c1.63,0,2.02,1.11,2.02,2.18v1.99c0,0.46,0.02,0.91,0.09,1.28H167.27z M167.13,124.2
				c-1.06-0.02-2.26,0.17-2.26,1.2c0,0.63,0.42,0.92,0.91,0.92c0.69,0,1.13-0.44,1.29-0.89c0.03-0.1,0.05-0.21,0.05-0.31V124.2z"/>
			<path class="st3" d="M171.87,123.58v0.72h-2.72v-0.72H171.87z"/>
			<path class="st3" d="M143.09,137.36l2.41-3.14c0.23-0.29,0.45-0.54,0.69-0.82v-0.02h-2.88v-0.78h4.06l-0.01,0.6l-2.38,3.09
				c-0.22,0.3-0.44,0.56-0.68,0.84v0.02h3.11v0.77h-4.32V137.36z"/>
			<path class="st3" d="M151.35,137.92l-0.08-0.67h-0.03c-0.3,0.42-0.87,0.79-1.63,0.79c-1.08,0-1.63-0.76-1.63-1.53
				c0-1.29,1.14-1.99,3.2-1.98v-0.11c0-0.44-0.12-1.23-1.21-1.23c-0.5,0-1.01,0.15-1.39,0.4l-0.22-0.64
				c0.44-0.29,1.08-0.47,1.75-0.47c1.63,0,2.02,1.11,2.02,2.18v1.99c0,0.46,0.02,0.91,0.09,1.28H151.35z M151.21,135.2
				c-1.06-0.02-2.26,0.17-2.26,1.2c0,0.63,0.42,0.92,0.91,0.92c0.69,0,1.13-0.44,1.29-0.89c0.03-0.1,0.05-0.21,0.05-0.31V135.2z
				 M151.69,130.29l-1.34,1.57h-0.69l0.97-1.57H151.69z"/>
			<path class="st3" d="M153.71,134.33c0-0.68-0.02-1.23-0.04-1.74h0.87l0.04,0.91h0.02c0.4-0.65,1.02-1.03,1.89-1.03
				c1.29,0,2.26,1.09,2.26,2.71c0,1.91-1.17,2.86-2.42,2.86c-0.7,0-1.32-0.31-1.64-0.84h-0.02v2.89h-0.96V134.33z M154.66,135.75
				c0,0.14,0.02,0.28,0.04,0.4c0.18,0.67,0.76,1.13,1.45,1.13c1.02,0,1.62-0.84,1.62-2.06c0-1.07-0.56-1.98-1.58-1.98
				c-0.66,0-1.28,0.47-1.46,1.2c-0.03,0.12-0.07,0.26-0.07,0.4V135.75z"/>
			<path class="st3" d="M162.91,137.92l-0.08-0.67h-0.03c-0.3,0.42-0.87,0.79-1.63,0.79c-1.08,0-1.63-0.76-1.63-1.53
				c0-1.29,1.14-1.99,3.2-1.98v-0.11c0-0.44-0.12-1.23-1.21-1.23c-0.5,0-1.01,0.15-1.39,0.4l-0.22-0.64
				c0.44-0.29,1.08-0.47,1.75-0.47c1.63,0,2.02,1.11,2.02,2.18v1.99c0,0.46,0.02,0.91,0.09,1.28H162.91z M162.77,135.2
				c-1.06-0.02-2.26,0.17-2.26,1.2c0,0.63,0.42,0.92,0.91,0.92c0.69,0,1.13-0.44,1.29-0.89c0.03-0.1,0.05-0.21,0.05-0.31V135.2z"/>
			<path class="st3" d="M169.87,130.11v6.44c0,0.47,0.01,1.01,0.04,1.38h-0.87l-0.04-0.92h-0.02c-0.3,0.59-0.95,1.05-1.82,1.05
				c-1.29,0-2.28-1.09-2.28-2.71c-0.01-1.77,1.09-2.86,2.39-2.86c0.81,0,1.36,0.39,1.61,0.81h0.02v-3.18H169.87z M168.9,134.76
				c0-0.12-0.01-0.29-0.04-0.41c-0.14-0.62-0.67-1.12-1.4-1.12c-1,0-1.6,0.88-1.6,2.06c0,1.08,0.53,1.97,1.57,1.97
				c0.65,0,1.24-0.43,1.42-1.16c0.03-0.13,0.04-0.26,0.04-0.42V134.76z"/>
		</g>
	</g>
	<g id="capital_region">
	</g>
	<g id="region">
	</g>
	<g id="capital">
		<g>
			<path class="st3" d="M171.68,82.13c0.61-0.1,1.47-0.18,2.68-0.18c1.22,0,2.09,0.23,2.68,0.7c0.56,0.44,0.94,1.17,0.94,2.03
				c0,0.86-0.29,1.59-0.81,2.08c-0.68,0.64-1.68,0.92-2.85,0.92c-0.26,0-0.49-0.01-0.68-0.04v3.13h-1.96V82.13z M173.64,86.11
				c0.17,0.04,0.38,0.05,0.66,0.05c1.05,0,1.7-0.53,1.7-1.43c0-0.81-0.56-1.29-1.55-1.29c-0.4,0-0.68,0.04-0.82,0.08V86.11z"/>
			<path class="st3" d="M179.23,82.13c0.64-0.1,1.59-0.18,2.64-0.18c1.3,0,2.21,0.19,2.83,0.69c0.52,0.42,0.81,1.03,0.81,1.83
				c0,1.12-0.79,1.89-1.55,2.16v0.04c0.61,0.25,0.95,0.83,1.17,1.64c0.27,0.99,0.55,2.13,0.71,2.47h-2.03
				c-0.14-0.25-0.35-0.96-0.61-2.04c-0.23-1.09-0.61-1.39-1.42-1.4h-0.6v3.45h-1.96V82.13z M181.2,85.9h0.78
				c0.99,0,1.57-0.49,1.57-1.26c0-0.81-0.55-1.21-1.46-1.22c-0.48,0-0.75,0.04-0.9,0.06V85.9z"/>
			<path class="st3" d="M189.1,88.53l-0.62,2.25h-2.05l2.68-8.76h2.6l2.72,8.76h-2.13l-0.68-2.25H189.1z M191.32,87.04l-0.55-1.86
				c-0.16-0.52-0.31-1.17-0.44-1.69h-0.03c-0.13,0.52-0.26,1.18-0.4,1.69l-0.52,1.86H191.32z"/>
			<path class="st3" d="M197.58,82.01v3.37h3.26v-3.37h1.98v8.76h-1.98v-3.67h-3.26v3.67h-1.99v-8.76H197.58z"/>
			<path class="st3" d="M206.59,88.53l-0.62,2.25h-2.05l2.68-8.76h2.6l2.72,8.76h-2.13l-0.68-2.25H206.59z M208.81,87.04l-0.55-1.86
				c-0.16-0.52-0.31-1.17-0.44-1.69h-0.03c-0.13,0.52-0.26,1.18-0.4,1.69l-0.52,1.86H208.81z"/>
		</g>
	</g>
</g>
</svg>
